<?xml version="1.0" encoding="UTF-8" standalone="no"?>
<svg
   xmlns:dc="http://purl.org/dc/elements/1.1/"
   xmlns:cc="http://creativecommons.org/ns#"
   xmlns:rdf="http://www.w3.org/1999/02/22-rdf-syntax-ns#"
   xmlns:svg="http://www.w3.org/2000/svg"
   xmlns="http://www.w3.org/2000/svg"
   xmlns:sodipodi="http://sodipodi.sourceforge.net/DTD/sodipodi-0.dtd"
   xmlns:inkscape="http://www.inkscape.org/namespaces/inkscape"
   width="23.719059mm"
   height="9.1389055mm"
   viewBox="0 0 23.719059 9.1389055"
   version="1.1"
   id="svg8"
   inkscape:version="1.0.1 (3bc2e813f5, 2020-09-07)"
   sodipodi:docname="cash6.svg">
  <defs
     id="defs2" />
  <sodipodi:namedview
     id="base"
     pagecolor="#ffffff"
     bordercolor="#666666"
     borderopacity="1.0"
     inkscape:pageopacity="0.0"
     inkscape:pageshadow="2"
     inkscape:zoom="0.7"
     inkscape:cx="-281.32806"
     inkscape:cy="-91.098028"
     inkscape:document-units="mm"
     inkscape:current-layer="layer1"
     inkscape:document-rotation="0"
     showgrid="false"
     inkscape:window-width="1920"
     inkscape:window-height="1009"
     inkscape:window-x="-8"
     inkscape:window-y="-8"
     inkscape:window-maximized="1"
     fit-margin-top="0"
     fit-margin-left="0"
     fit-margin-right="0"
     fit-margin-bottom="0" />
  <metadata
     id="metadata5">
    <rdf:RDF>
      <cc:Work
         rdf:about="">
        <dc:format>image/svg+xml</dc:format>
        <dc:type
           rdf:resource="http://purl.org/dc/dcmitype/StillImage" />
        <dc:title></dc:title>
      </cc:Work>
    </rdf:RDF>
  </metadata>
  <g
     inkscape:label="Layer 1"
     inkscape:groupmode="layer"
     id="layer1"
     transform="translate(-244.31384,-106.5083)">
    <rect
       style="fill:none;stroke:none;stroke-width:0.324382;stroke-linejoin:round;paint-order:stroke fill markers"
       id="rect855-2-2-8-2-6"
       width="19.931002"
       height="1.2252781"
       x="244.54695"
       y="114.42193"
       ry="0.12393418" />
    <path
       id="rect1142-4-9-0-3-6"
       style="fill:none;stroke:none;stroke-width:0.119346;stroke-linejoin:round;stroke-miterlimit:4;stroke-dasharray:none;stroke-opacity:1;paint-order:stroke fill markers"
       d="m 246.57226,107.0647 a 1.3599474,1.344351 0 0 1 0.025,0.25731 1.3599474,1.344351 0 0 1 -1.35982,1.34413 1.3599474,1.344351 0 0 1 -0.21776,-0.0173 v 4.68861 a 1.3599474,1.3443511 0 0 1 0.38079,-0.0537 1.3599474,1.3443511 0 0 1 1.36011,1.34444 1.3599474,1.3443511 0 0 1 -0.0764,0.44399 h 18.52371 a 1.3599474,1.344351 0 0 1 -0.0607,-0.39732 1.3599474,1.344351 0 0 1 1.35982,-1.34444 1.3599474,1.344351 0 0 1 0.43522,0.071 v -4.8545 a 1.7886281,1.756543 0 0 1 -1.63202,-1.48221 z" />
    <rect
       style="fill:none;stroke:none;stroke-width:0.127821;stroke-linejoin:round;stroke-miterlimit:4;stroke-dasharray:none;stroke-opacity:1;paint-order:stroke fill markers"
       id="rect1187-7-2-1-2-5"
       width="23.719059"
       height="9.0744076"
       x="244.31384"
       y="106.5083"
       ry="0.12027082" />
    <path
       style="fill:#4afff9;fill-opacity:1;stroke:none;stroke-width:0.0231702;stroke-linejoin:round;stroke-miterlimit:4;stroke-dasharray:none;stroke-opacity:1;paint-order:stroke fill markers"
       d="m 244.40693,115.48299 c -0.0107,-0.0118 -0.0195,-2.01423 -0.0195,-4.44974 v -4.4282 h 11.78678 11.78679 l -0.007,4.44164 -0.007,4.44163 -11.75993,0.008 c -6.46796,0.004 -11.76869,-0.002 -11.7794,-0.0134 z m 20.84952,-0.44609 c -0.005,-0.0532 -0.0115,-0.22037 -0.0146,-0.37148 -0.005,-0.25178 0.002,-0.29272 0.0901,-0.48962 0.22048,-0.49561 0.76001,-0.81123 1.2885,-0.75377 0.10417,0.0113 0.23202,0.0291 0.28411,0.0395 l 0.0947,0.0189 v -2.50061 -2.5006 l -0.13841,-0.0206 c -0.69763,-0.10399 -1.25852,-0.59028 -1.43894,-1.24757 l -0.0601,-0.21899 -9.43087,-10e-6 -9.43088,-1e-5 v 0.31439 c 0,0.27992 -0.009,0.33479 -0.0825,0.50037 -0.12006,0.27056 -0.32446,0.48699 -0.59341,0.62832 -0.20652,0.10853 -0.25397,0.12031 -0.54727,0.13593 l -0.32115,0.0171 v 2.40219 2.40219 l 0.33509,-0.0106 c 0.36826,-0.0117 0.57798,0.0387 0.82314,0.19765 0.1777,0.11524 0.39137,0.3795 0.48185,0.59594 0.0626,0.14967 0.0773,0.23294 0.0781,0.44233 5.9e-4,0.14639 -0.0159,0.30243 -0.0382,0.3608 -0.0216,0.0566 -0.0306,0.11826 -0.0201,0.13709 0.0135,0.0241 2.78622,0.0318 9.33454,0.0261 l 9.31541,-0.008 z"
       id="path1199-3-2-9-8-8" />
    <path
       style="fill:#f0f0f0;fill-opacity:1;stroke:none;stroke-width:0.0231702;stroke-linejoin:round;stroke-miterlimit:4;stroke-dasharray:none;stroke-opacity:1;paint-order:stroke fill markers"
       d="m 246.81637,114.80791 c 0.0883,-0.53892 -0.21039,-1.13464 -0.70657,-1.40933 -0.26115,-0.14457 -0.46341,-0.19092 -0.7757,-0.17777 l -0.24743,0.0104 7e-5,-2.24903 6e-5,-2.24903 0.19669,-7.2e-4 c 0.2486,-10e-4 0.40979,-0.0422 0.63874,-0.16306 0.42671,-0.22535 0.70644,-0.66823 0.73212,-1.15915 l 0.0134,-0.25697 h 9.28766 9.28766 l 0.0662,0.20153 c 0.18956,0.57707 0.66412,1.03492 1.24249,1.19875 0.0985,0.0279 0.21321,0.0507 0.25497,0.0507 h 0.0759 v 2.34949 2.3495 l -0.12384,-0.0265 c -0.62007,-0.13274 -1.28593,0.22389 -1.55885,0.83491 -0.10389,0.23258 -0.10935,0.26059 -0.10935,0.56086 v 0.31605 l -9.15193,2e-5 -9.15194,2e-5 z"
       id="path1201-0-1-2-6-4" />
    <g
       id="g1619">
      <path
         style="fill:#005f73;fill-opacity:1;stroke:none;stroke-width:0.0231702;stroke-linejoin:round;stroke-miterlimit:4;stroke-dasharray:none;stroke-opacity:1;paint-order:stroke fill markers"
         d="m 244.40686,112.35258 c -0.0106,-1.7158 -0.0194,-3.7109 -0.0194,-4.43358 l -2e-5,-1.31395 h 11.791 11.791 l -0.0187,0.26602 c -0.0103,0.14631 -0.0188,2.14141 -0.0189,4.43357 l -1.6e-4,4.16756 h -11.75275 -11.75274 z m 20.85349,2.44253 -0.0183,-0.35464 0.10708,-0.23977 c 0.12957,-0.29009 0.29692,-0.46546 0.59488,-0.62337 0.17863,-0.0947 0.25251,-0.11485 0.46622,-0.12738 0.13967,-0.008 0.32943,-0.001 0.42168,0.0154 l 0.16772,0.0303 -0.007,-2.51781 -0.007,-2.51781 -0.15675,-0.025 c -0.38442,-0.0612 -0.84136,-0.32638 -1.08052,-0.62703 -0.13189,-0.1658 -0.30996,-0.53686 -0.33854,-0.70541 l -0.0188,-0.1106 h -9.45233 -9.45233 l -2e-5,0.29826 c -2e-5,0.26145 -0.0103,0.32241 -0.0837,0.49393 -0.10739,0.25118 -0.32187,0.48387 -0.57578,0.62466 -0.17564,0.0974 -0.242,0.11482 -0.5425,0.14253 l -0.34238,0.0316 v 2.41282 2.41281 h 0.35895 c 0.5357,0 0.80578,0.11259 1.07234,0.44704 0.25122,0.31519 0.34136,0.68744 0.25875,1.06849 -0.0304,0.14028 -0.0298,0.17313 0.004,0.19655 0.0226,0.0158 4.10162,0.0283 9.34202,0.0286 l 9.30191,5.5e-4 z"
         id="path1213-6-2-3-0-0" />
      <path
         style="fill:#005f73;fill-opacity:1;stroke:none;stroke-width:0.0655352;stroke-linejoin:round;stroke-miterlimit:4;stroke-dasharray:none;stroke-opacity:1;paint-order:stroke fill markers"
         d="m 254.95833,114.22109 c -0.99255,-0.27987 -1.9095,-1.05575 -2.34045,-1.98035 -0.28067,-0.60216 -0.3169,-1.69044 -0.0795,-2.38701 0.49121,-1.44109 2.15025,-2.4826 3.68147,-2.31113 1.64008,0.18366 2.8848,1.32487 3.17219,2.90837 0.26039,1.43478 -0.66964,3.00888 -2.14389,3.62856 -0.577,0.24253 -1.68816,0.31123 -2.28986,0.14156 z m 2.59166,-0.74071 c 0.0128,-0.0124 0.0457,-0.23337 0.0733,-0.49097 l 0.0501,-0.46837 h -0.87686 c -0.8518,0 -0.97426,-0.0382 -0.78714,-0.24521 0.0494,-0.0546 0.0921,-0.27828 0.095,-0.49704 l 0.005,-0.39776 h 0.37889 0.37888 l 0.0249,-0.4788 0.0249,-0.4788 h -0.58006 -0.58006 l -0.21052,-0.35202 c -0.11579,-0.19361 -0.23163,-0.49594 -0.25742,-0.67185 -0.0388,-0.26483 -0.0139,-0.34545 0.14527,-0.46879 0.28906,-0.22404 0.71804,-0.17954 1.21985,0.12653 0.24543,0.1497 0.4543,0.26181 0.46416,0.24915 0.01,-0.0127 0.0602,-0.24455 0.11183,-0.51531 0.11848,-0.62109 0.0308,-0.74782 -0.66711,-0.96452 -0.83668,-0.25977 -1.69485,0.01 -2.04873,0.6433 -0.19482,0.34882 -0.21143,1.00438 -0.0371,1.46598 0.1539,0.40758 0.1583,0.3782 -0.0618,0.41279 -0.16461,0.0259 -0.18823,0.0888 -0.21034,0.56037 l -0.0249,0.53124 0.4782,-0.0249 c 0.43448,-0.0226 0.48055,-0.007 0.50397,0.17086 0.0142,0.10766 -0.016,0.28214 -0.0671,0.38773 -0.11809,0.24417 -0.56206,0.54624 -0.80348,0.54668 -0.14924,3.7e-4 -0.18544,0.0515 -0.18544,0.26255 0,0.14421 0.0218,0.38263 0.0484,0.52982 l 0.0484,0.26762 1.66178,-0.0388 c 0.91399,-0.0214 1.67222,-0.049 1.68495,-0.0615 z"
         id="path1228-9-0-9-9-9" />
    </g>
  </g>
</svg>
