<?xml version="1.0" encoding="UTF-8" standalone="no"?>
<svg
   xmlns:dc="http://purl.org/dc/elements/1.1/"
   xmlns:cc="http://creativecommons.org/ns#"
   xmlns:rdf="http://www.w3.org/1999/02/22-rdf-syntax-ns#"
   xmlns:svg="http://www.w3.org/2000/svg"
   xmlns="http://www.w3.org/2000/svg"
   xmlns:sodipodi="http://sodipodi.sourceforge.net/DTD/sodipodi-0.dtd"
   xmlns:inkscape="http://www.inkscape.org/namespaces/inkscape"
   width="25.041975mm"
   height="9.6113777mm"
   viewBox="0 0 25.041975 9.6113777"
   version="1.1"
   id="svg8"
   inkscape:version="1.0.1 (3bc2e813f5, 2020-09-07)"
   sodipodi:docname="cash5.svg">
  <defs
     id="defs2" />
  <sodipodi:namedview
     id="base"
     pagecolor="#ffffff"
     bordercolor="#666666"
     borderopacity="1.0"
     inkscape:pageopacity="0.0"
     inkscape:pageshadow="2"
     inkscape:zoom="0.7"
     inkscape:cx="-186.50659"
     inkscape:cy="-189.13373"
     inkscape:document-units="mm"
     inkscape:current-layer="layer1"
     inkscape:document-rotation="0"
     showgrid="false"
     inkscape:window-width="1920"
     inkscape:window-height="1009"
     inkscape:window-x="-8"
     inkscape:window-y="-8"
     inkscape:window-maximized="1"
     fit-margin-top="0"
     fit-margin-left="0"
     fit-margin-right="0"
     fit-margin-bottom="0" />
  <metadata
     id="metadata5">
    <rdf:RDF>
      <cc:Work
         rdf:about="">
        <dc:format>image/svg+xml</dc:format>
        <dc:type
           rdf:resource="http://purl.org/dc/dcmitype/StillImage" />
        <dc:title></dc:title>
      </cc:Work>
    </rdf:RDF>
  </metadata>
  <g
     inkscape:label="Layer 1"
     inkscape:groupmode="layer"
     id="layer1"
     transform="translate(-219.22566,-132.44691)">
    <rect
       style="fill:none;stroke:none;stroke-width:0.341813;stroke-linejoin:round;paint-order:stroke fill markers"
       id="rect855-2-2-8-2"
       width="21.042641"
       height="1.2886235"
       x="219.47177"
       y="140.76967"
       ry="0.13034143" />
    <path
       id="rect1142-4-9-0-3"
       style="fill:none;stroke:none;stroke-width:0.125759;stroke-linejoin:round;stroke-miterlimit:4;stroke-dasharray:none;stroke-opacity:1;paint-order:stroke fill markers"
       d="m 221.61005,133.03208 a 1.4357976,1.4138523 0 0 1 0.0264,0.27062 1.4357976,1.4138523 0 0 1 -1.43566,1.41361 1.4357976,1.4138523 0 0 1 -0.22991,-0.0182 v 4.93101 a 1.4357976,1.4138524 0 0 1 0.40203,-0.0565 1.4357976,1.4138524 0 0 1 1.43597,1.41395 1.4357976,1.4138524 0 0 1 -0.0807,0.46694 H 241.285 a 1.4357976,1.4138523 0 0 1 -0.0641,-0.41786 1.4357976,1.4138523 0 0 1 1.43566,-1.41395 1.4357976,1.4138523 0 0 1 0.4595,0.0746 v -5.10547 a 1.8883877,1.8473541 0 0 1 -1.72305,-1.55884 z" />
    <rect
       style="fill:none;stroke:none;stroke-width:0.134689;stroke-linejoin:round;stroke-miterlimit:4;stroke-dasharray:none;stroke-opacity:1;paint-order:stroke fill markers"
       id="rect1187-7-2-1-2"
       width="25.041975"
       height="9.5435438"
       x="219.22566"
       y="132.44691"
       ry="0.12648867" />
    <path
       style="fill:#4afff9;fill-opacity:1;stroke:none;stroke-width:0.0244152;stroke-linejoin:round;stroke-miterlimit:4;stroke-dasharray:none;stroke-opacity:1;paint-order:stroke fill markers"
       d="m 219.32395,141.88558 c -0.0113,-0.0125 -0.0205,-2.11835 -0.0205,-4.67978 v -4.65713 h 12.44419 12.44418 l -0.008,4.67127 -0.008,4.67125 -12.41583,0.009 c -6.82871,0.005 -12.42509,-0.002 -12.43639,-0.0141 z m 22.01239,-0.46914 c -0.005,-0.0559 -0.0122,-0.23177 -0.0154,-0.39069 -0.005,-0.2648 0.003,-0.30786 0.0951,-0.51494 0.23278,-0.52122 0.8024,-0.85316 1.36037,-0.79274 0.10998,0.0119 0.24496,0.0306 0.29995,0.0415 l 0.1,0.0199 v -2.62989 -2.62988 l -0.14613,-0.0217 c -0.73654,-0.10937 -1.32871,-0.6208 -1.51919,-1.31206 l -0.0635,-0.23031 -9.95688,-2e-5 -9.95688,-1e-5 v 0.33065 c 0,0.29439 -0.01,0.35209 -0.0871,0.52624 -0.12676,0.28454 -0.34256,0.51216 -0.62651,0.6608 -0.21804,0.11413 -0.26813,0.12653 -0.5778,0.14295 l -0.33906,0.018 v 2.52638 2.52638 l 0.35379,-0.0112 c 0.3888,-0.0123 0.61021,0.0407 0.86904,0.20787 0.18761,0.12119 0.4132,0.39912 0.50873,0.62675 0.066,0.1574 0.0816,0.24497 0.0824,0.46519 6.2e-4,0.15396 -0.0168,0.31807 -0.0403,0.37946 -0.0228,0.0595 -0.0323,0.12437 -0.0212,0.14417 0.0142,0.0253 2.94162,0.0335 9.85516,0.0275 l 9.83498,-0.009 z"
       id="path1199-3-2-9-8" />
    <path
       style="fill:#f0f0f0;fill-opacity:1;stroke:none;stroke-width:0.0244152;stroke-linejoin:round;stroke-miterlimit:4;stroke-dasharray:none;stroke-opacity:1;paint-order:stroke fill markers"
       d="m 221.86777,141.17561 c 0.0932,-0.56679 -0.22212,-1.19331 -0.74598,-1.48219 -0.27571,-0.15205 -0.48925,-0.2008 -0.81896,-0.18696 l -0.26123,0.011 7e-5,-2.3653 7e-5,-2.3653 0.20766,-7.6e-4 c 0.26246,-0.001 0.43265,-0.0443 0.67436,-0.17148 0.45051,-0.23701 0.74584,-0.70279 0.77296,-1.21908 l 0.0142,-0.27026 h 9.80567 9.80567 l 0.0699,0.21195 c 0.20014,0.60691 0.70117,1.08842 1.3118,1.26072 0.10396,0.0293 0.2251,0.0533 0.26918,0.0533 h 0.0802 v 2.47096 2.47096 l -0.13075,-0.0279 c -0.65466,-0.13961 -1.35766,0.23546 -1.6458,0.87807 -0.10968,0.2446 -0.11545,0.27406 -0.11545,0.58985 v 0.3324 l -9.66238,2e-5 -9.66237,2e-5 z"
       id="path1201-0-1-2-6" />
    <path
       style="fill:#005f73;fill-opacity:1;stroke:none;stroke-width:0.0244152;stroke-linejoin:round;stroke-miterlimit:4;stroke-dasharray:none;stroke-opacity:1;paint-order:stroke fill markers"
       d="m 219.32388,138.59334 c -0.0112,-1.8045 -0.0205,-3.90275 -0.0205,-4.66279 l -2e-5,-1.38188 h 12.44864 12.44863 l -0.0198,0.27977 c -0.0109,0.15387 -0.0198,2.25212 -0.0199,4.66278 l -1.8e-4,4.38302 H 231.7525 219.34427 Z m 22.01658,2.56881 -0.0194,-0.37298 0.11306,-0.25216 c 0.13679,-0.30509 0.31348,-0.48953 0.62805,-0.6556 0.18859,-0.0996 0.2666,-0.12079 0.49223,-0.13396 0.14746,-0.009 0.3478,-10e-4 0.44519,0.0162 l 0.17708,0.0318 -0.008,-2.64798 -0.008,-2.64798 -0.16549,-0.0263 c -0.40586,-0.0644 -0.88829,-0.34326 -1.14079,-0.65945 -0.13924,-0.17437 -0.32725,-0.56461 -0.35742,-0.74188 l -0.0198,-0.11631 h -9.97954 -9.97952 l -3e-5,0.31368 c -2e-5,0.27496 -0.0109,0.33907 -0.0883,0.51945 -0.11337,0.26418 -0.33982,0.50889 -0.6079,0.65696 -0.18543,0.10242 -0.25549,0.12076 -0.57275,0.14991 l -0.36148,0.0332 v 2.53755 2.53756 h 0.37897 c 0.56558,0 0.85072,0.11841 1.13215,0.47015 0.26523,0.33148 0.3604,0.72297 0.27319,1.12372 -0.0321,0.14754 -0.0315,0.18209 0.004,0.20672 0.0239,0.0166 4.33039,0.0298 9.86307,0.0301 l 9.82072,5.7e-4 z"
       id="path1213-6-2-3-0" />
    <path
       style="fill:#005f73;fill-opacity:1;stroke:none;stroke-width:0.0690567;stroke-linejoin:round;stroke-miterlimit:4;stroke-dasharray:none;stroke-opacity:1;paint-order:stroke fill markers"
       d="m 230.91236,140.7111 c -1.0479,-0.29434 -2.016,-1.11033 -2.47099,-2.08273 -0.29632,-0.63329 -0.33456,-1.77783 -0.0839,-2.51041 0.51861,-1.5156 2.27019,-2.61095 3.8868,-2.43062 1.73156,0.19316 3.04571,1.39337 3.34912,3.05874 0.27492,1.50895 -0.70699,3.16442 -2.26346,3.81614 -0.60918,0.25507 -1.78232,0.32732 -2.41758,0.14888 z m 2.73622,-0.779 c 0.0135,-0.0131 0.0483,-0.24544 0.0774,-0.51636 l 0.0529,-0.49258 h -0.92576 c -0.89931,0 -1.0286,-0.0401 -0.83104,-0.25789 0.0521,-0.0574 0.0972,-0.29266 0.10031,-0.52274 l 0.006,-0.41831 h 0.40002 0.40002 l 0.0263,-0.50356 0.0263,-0.50355 h -0.61241 -0.61241 l -0.22226,-0.37022 c -0.12224,-0.20362 -0.24455,-0.52158 -0.27178,-0.70659 -0.041,-0.27851 -0.0146,-0.36331 0.15337,-0.49302 0.30519,-0.23562 0.75809,-0.18883 1.28789,0.13307 0.25911,0.15743 0.47963,0.27535 0.49004,0.26203 0.0104,-0.0133 0.0635,-0.2572 0.11808,-0.54195 0.12508,-0.6532 0.0325,-0.78648 -0.70433,-1.01438 -0.88334,-0.27321 -1.78937,0.0102 -2.16299,0.67655 -0.20569,0.36685 -0.22322,1.05631 -0.0392,1.54177 0.16249,0.42865 0.16713,0.39775 -0.0653,0.43413 -0.17379,0.0272 -0.19873,0.0934 -0.22207,0.58935 l -0.0263,0.55869 0.50487,-0.0262 c 0.45872,-0.0238 0.50735,-0.007 0.53208,0.17969 0.015,0.11323 -0.0169,0.29673 -0.0708,0.40778 -0.12468,0.25679 -0.5934,0.57448 -0.8483,0.57495 -0.15756,3.8e-4 -0.19578,0.0542 -0.19578,0.27611 0,0.15167 0.023,0.40241 0.0511,0.55721 l 0.0511,0.28146 1.75447,-0.0409 c 0.96496,-0.0225 1.76548,-0.0516 1.77893,-0.0646 z"
       id="path1228-9-0-9-9" />
  </g>
</svg>
