<?xml version="1.0" encoding="UTF-8" standalone="no"?>
<svg
   xmlns:dc="http://purl.org/dc/elements/1.1/"
   xmlns:cc="http://creativecommons.org/ns#"
   xmlns:rdf="http://www.w3.org/1999/02/22-rdf-syntax-ns#"
   xmlns:svg="http://www.w3.org/2000/svg"
   xmlns="http://www.w3.org/2000/svg"
   xmlns:sodipodi="http://sodipodi.sourceforge.net/DTD/sodipodi-0.dtd"
   xmlns:inkscape="http://www.inkscape.org/namespaces/inkscape"
   width="25.797928mm"
   height="9.5168753mm"
   viewBox="0 0 25.797928 9.5168753"
   version="1.1"
   id="svg8"
   inkscape:version="1.0.1 (3bc2e813f5, 2020-09-07)"
   sodipodi:docname="cash3.svg">
  <defs
     id="defs2" />
  <sodipodi:namedview
     id="base"
     pagecolor="#ffffff"
     bordercolor="#666666"
     borderopacity="1.0"
     inkscape:pageopacity="0.0"
     inkscape:pageshadow="2"
     inkscape:zoom="0.7"
     inkscape:cx="15.503666"
     inkscape:cy="-217.51958"
     inkscape:document-units="mm"
     inkscape:current-layer="layer1"
     inkscape:document-rotation="0"
     showgrid="false"
     inkscape:window-width="1920"
     inkscape:window-height="1009"
     inkscape:window-x="-8"
     inkscape:window-y="-8"
     inkscape:window-maximized="1"
     fit-margin-top="0"
     fit-margin-left="0"
     fit-margin-right="0"
     fit-margin-bottom="0" />
  <metadata
     id="metadata5">
    <rdf:RDF>
      <cc:Work
         rdf:about="">
        <dc:format>image/svg+xml</dc:format>
        <dc:type
           rdf:resource="http://purl.org/dc/dcmitype/StillImage" />
        <dc:title></dc:title>
      </cc:Work>
    </rdf:RDF>
  </metadata>
  <g
     inkscape:label="Layer 1"
     inkscape:groupmode="layer"
     id="layer1"
     transform="translate(-165.77711,-139.95734)">
    <rect
       style="fill:none;stroke:none;stroke-width:0.345224;stroke-linejoin:round;paint-order:stroke fill markers"
       id="rect855-2-2"
       width="21.677864"
       height="1.2759544"
       x="166.03067"
       y="148.19826"
       ry="0.12905997" />
    <path
       id="rect1142-4-9"
       style="fill:none;stroke:none;stroke-width:0.127014;stroke-linejoin:round;stroke-miterlimit:4;stroke-dasharray:none;stroke-opacity:1;paint-order:stroke fill markers"
       d="m 168.23348,140.53674 a 1.4791406,1.399952 0 0 1 0.0272,0.26796 1.4791406,1.399952 0 0 1 -1.479,1.39972 1.4791406,1.399952 0 0 1 -0.23685,-0.018 v 4.88252 a 1.4791406,1.3999521 0 0 1 0.41416,-0.0559 1.4791406,1.3999521 0 0 1 1.47932,1.40004 1.4791406,1.3999521 0 0 1 -0.0831,0.46236 h 20.14723 a 1.4791406,1.399952 0 0 1 -0.066,-0.41375 1.4791406,1.399952 0 0 1 1.479,-1.40005 1.4791406,1.399952 0 0 1 0.47337,0.0739 v -5.05528 a 1.9453933,1.8291918 0 0 1 -1.77506,-1.5435 z" />
    <rect
       style="fill:none;stroke:none;stroke-width:0.136034;stroke-linejoin:round;stroke-miterlimit:4;stroke-dasharray:none;stroke-opacity:1;paint-order:stroke fill markers"
       id="rect1187-7-2"
       width="25.797928"
       height="9.4497166"
       x="165.77711"
       y="139.95734"
       ry="0.12524511" />
    <path
       style="fill:#4afff9;fill-opacity:1;stroke:none;stroke-width:0.0246589;stroke-linejoin:round;stroke-miterlimit:4;stroke-dasharray:none;stroke-opacity:1;paint-order:stroke fill markers"
       d="m 165.87838,149.30321 c -0.0117,-0.0123 -0.0212,-2.09753 -0.0212,-4.63377 v -4.61135 h 12.81984 12.81984 l -0.008,4.62534 -0.008,4.62533 -12.79064,0.008 c -7.03486,0.005 -12.80017,-0.002 -12.81181,-0.014 z m 22.67689,-0.46454 c -0.005,-0.0554 -0.0125,-0.22948 -0.0159,-0.38685 -0.006,-0.26219 0.003,-0.30482 0.0979,-0.50987 0.23982,-0.5161 0.82663,-0.84477 1.40144,-0.78494 0.1133,0.0118 0.25236,0.0303 0.309,0.0411 l 0.10301,0.0197 v -2.60403 -2.60402 l -0.15054,-0.0215 c -0.75878,-0.10829 -1.36882,-0.61469 -1.56506,-1.29916 l -0.0654,-0.22805 -10.25745,-1e-5 -10.25746,-2e-5 v 0.3274 c 0,0.2915 -0.01,0.34864 -0.0898,0.52107 -0.13058,0.28175 -0.3529,0.50712 -0.64542,0.6543 -0.22462,0.11302 -0.27622,0.12529 -0.59524,0.14155 l -0.34929,0.0178 v 2.50154 2.50154 l 0.36446,-0.0111 c 0.40054,-0.0122 0.62863,0.0403 0.89528,0.20582 0.19328,0.12001 0.42568,0.3952 0.52408,0.62059 0.068,0.15586 0.084,0.24257 0.0849,0.46062 6.4e-4,0.15245 -0.0173,0.31494 -0.0416,0.37572 -0.0235,0.0589 -0.0333,0.12315 -0.0219,0.14276 0.0146,0.0251 3.03042,0.0332 10.15267,0.0272 l 10.13187,-0.008 z"
       id="path1199-3-2" />
    <path
       style="fill:#f0f0f0;fill-opacity:1;stroke:none;stroke-width:0.0246589;stroke-linejoin:round;stroke-miterlimit:4;stroke-dasharray:none;stroke-opacity:1;paint-order:stroke fill markers"
       d="m 168.49899,148.60021 c 0.096,-0.56121 -0.22883,-1.18157 -0.7685,-1.46762 -0.28404,-0.15055 -0.50402,-0.19882 -0.84369,-0.18512 l -0.26911,0.0108 7e-5,-2.34205 8e-5,-2.34205 0.21392,-7.5e-4 c 0.27039,-10e-4 0.44571,-0.0439 0.69472,-0.1698 0.46411,-0.23467 0.76836,-0.69587 0.79629,-1.20709 l 0.0146,-0.2676 h 10.10168 10.10168 l 0.072,0.20986 c 0.20618,0.60094 0.72233,1.07773 1.3514,1.24833 0.1071,0.0291 0.23189,0.0528 0.27731,0.0528 h 0.0826 v 2.44667 2.44667 l -0.1347,-0.0276 c -0.67441,-0.13823 -1.39863,0.23315 -1.69548,0.86944 -0.11299,0.2422 -0.11893,0.27137 -0.11893,0.58406 v 0.32912 l -9.95406,2e-5 -9.95406,3e-5 z"
       id="path1201-0-1" />
    <path
       style="fill:#005f73;fill-opacity:1;stroke:none;stroke-width:0.0246589;stroke-linejoin:round;stroke-miterlimit:4;stroke-dasharray:none;stroke-opacity:1;paint-order:stroke fill markers"
       d="m 165.8783,146.04333 c -0.0116,-1.78676 -0.0211,-3.86438 -0.0211,-4.61694 l -2e-5,-1.3683 h 12.82443 12.82443 l -0.0204,0.27702 c -0.0112,0.15236 -0.0204,2.22998 -0.0205,4.61694 l -1.8e-4,4.33992 h -12.78282 -12.78281 z m 22.68121,2.54355 -0.0199,-0.36931 0.11648,-0.24968 c 0.14091,-0.30209 0.32294,-0.48472 0.64701,-0.64915 0.19428,-0.0986 0.27464,-0.11961 0.50708,-0.13265 0.15192,-0.009 0.3583,-0.001 0.45864,0.016 l 0.18242,0.0315 -0.008,-2.62195 -0.008,-2.62195 -0.17048,-0.026 c -0.41812,-0.0637 -0.91511,-0.33988 -1.17523,-0.65296 -0.14344,-0.17266 -0.33713,-0.55906 -0.36821,-0.73459 l -0.0204,-0.11517 h -10.28079 -10.28078 l -3e-5,0.3106 c -2e-5,0.27226 -0.0112,0.33574 -0.091,0.51435 -0.1168,0.26157 -0.35009,0.50389 -0.62626,0.6505 -0.19102,0.10141 -0.2632,0.11956 -0.59004,0.14843 l -0.37239,0.0329 v 2.51261 2.51261 h 0.39041 c 0.58266,0 0.8764,0.11724 1.16633,0.46553 0.27324,0.32822 0.37128,0.71586 0.28143,1.11267 -0.0331,0.14609 -0.0324,0.1803 0.004,0.20469 0.0246,0.0165 4.46111,0.0295 10.16081,0.0298 l 10.11718,5.7e-4 z"
       id="path1213-6-2" />
    <path
       style="fill:#005f73;fill-opacity:1;stroke:none;stroke-width:0.0697459;stroke-linejoin:round;stroke-miterlimit:4;stroke-dasharray:none;stroke-opacity:1;paint-order:stroke fill markers"
       d="m 177.15996,148.22713 c -1.07954,-0.29146 -2.07686,-1.09942 -2.54558,-2.06226 -0.30526,-0.62707 -0.34467,-1.76035 -0.0864,-2.48573 0.53426,-1.5007 2.33871,-2.58528 4.00413,-2.40672 1.78382,0.19126 3.13765,1.37966 3.45022,3.02866 0.28322,1.49412 -0.72833,3.13332 -2.33179,3.77863 -0.62757,0.25256 -1.83612,0.3241 -2.49056,0.14742 z m 2.81881,-0.77135 c 0.0139,-0.0129 0.0497,-0.24302 0.0797,-0.51128 l 0.0545,-0.48774 h -0.95371 c -0.92645,0 -1.05964,-0.0397 -0.85612,-0.25535 0.0537,-0.0569 0.10017,-0.28979 0.10334,-0.5176 l 0.006,-0.4142 h 0.41209 0.4121 l 0.0271,-0.49861 0.0271,-0.4986 h -0.6309 -0.6309 l -0.22897,-0.36658 c -0.12593,-0.20162 -0.25193,-0.51645 -0.27998,-0.69964 -0.0422,-0.27578 -0.0151,-0.35974 0.158,-0.48817 0.3144,-0.23331 0.78098,-0.18698 1.32677,0.13175 0.26693,0.15589 0.49411,0.27264 0.50483,0.25946 0.0107,-0.0132 0.0655,-0.25467 0.12164,-0.53662 0.12886,-0.64678 0.0335,-0.77875 -0.72559,-1.00441 -0.91001,-0.27052 -1.84339,0.0101 -2.22828,0.6699 -0.2119,0.36325 -0.22996,1.04592 -0.0404,1.52661 0.16738,0.42444 0.17217,0.39384 -0.0672,0.42986 -0.17904,0.0269 -0.20474,0.0925 -0.22878,0.58356 l -0.0271,0.5532 0.5201,-0.0259 c 0.47257,-0.0235 0.52268,-0.007 0.54815,0.17793 0.0154,0.11211 -0.0174,0.29381 -0.073,0.40377 -0.12844,0.25427 -0.61132,0.56883 -0.8739,0.56929 -0.16232,3.8e-4 -0.2017,0.0537 -0.2017,0.2734 0,0.15018 0.0237,0.39846 0.0526,0.55174 l 0.0526,0.27868 1.80744,-0.0404 c 0.99409,-0.0223 1.81877,-0.051 1.83263,-0.064 z"
       id="path1228-9-0" />
  </g>
</svg>
