<?xml version="1.0" encoding="UTF-8" standalone="no"?>
<svg
   xmlns:dc="http://purl.org/dc/elements/1.1/"
   xmlns:cc="http://creativecommons.org/ns#"
   xmlns:rdf="http://www.w3.org/1999/02/22-rdf-syntax-ns#"
   xmlns:svg="http://www.w3.org/2000/svg"
   xmlns="http://www.w3.org/2000/svg"
   xmlns:sodipodi="http://sodipodi.sourceforge.net/DTD/sodipodi-0.dtd"
   xmlns:inkscape="http://www.inkscape.org/namespaces/inkscape"
   width="26.269348mm"
   height="9.8003664mm"
   viewBox="0 0 26.269348 9.8003664"
   version="1.1"
   id="svg8"
   inkscape:version="1.0.1 (3bc2e813f5, 2020-09-07)"
   sodipodi:docname="cash2.svg">
  <defs
     id="defs2" />
  <sodipodi:namedview
     id="base"
     pagecolor="#ffffff"
     bordercolor="#666666"
     borderopacity="1.0"
     inkscape:pageopacity="0.0"
     inkscape:pageshadow="2"
     inkscape:zoom="0.7"
     inkscape:cx="114.14146"
     inkscape:cy="-11.55813"
     inkscape:document-units="mm"
     inkscape:current-layer="layer1"
     inkscape:document-rotation="0"
     showgrid="false"
     inkscape:window-width="1920"
     inkscape:window-height="1009"
     inkscape:window-x="-8"
     inkscape:window-y="-8"
     inkscape:window-maximized="1"
     fit-margin-top="0"
     fit-margin-left="0"
     fit-margin-right="0"
     fit-margin-bottom="0" />
  <metadata
     id="metadata5">
    <rdf:RDF>
      <cc:Work
         rdf:about="">
        <dc:format>image/svg+xml</dc:format>
        <dc:type
           rdf:resource="http://purl.org/dc/dcmitype/StillImage" />
        <dc:title></dc:title>
      </cc:Work>
    </rdf:RDF>
  </metadata>
  <g
     inkscape:label="Layer 1"
     inkscape:groupmode="layer"
     id="layer1"
     transform="translate(-139.6792,-145.93956)">
    <rect
       style="fill:none;stroke:none;stroke-width:0.499999;stroke-linejoin:round;paint-order:stroke fill markers"
       id="rect855"
       width="32.316963"
       height="1.7953868"
       x="101.59811"
       y="144.23868"
       ry="0.18159941" />
    <rect
       style="fill:none;stroke:none;stroke-width:0.197022;stroke-linejoin:round;stroke-miterlimit:4;stroke-dasharray:none;stroke-opacity:1;paint-order:stroke fill markers"
       id="rect1187"
       width="38.45908"
       height="13.296632"
       x="101.22013"
       y="132.64293"
       ry="0.17623153" />
    <rect
       style="fill:none;stroke:none;stroke-width:0.353514;stroke-linejoin:round;paint-order:stroke fill markers"
       id="rect855-2"
       width="22.073996"
       height="1.3139617"
       x="139.93738"
       y="154.42596"
       ry="0.13290434" />
    <path
       id="rect1142-4"
       style="fill:none;stroke:none;stroke-width:0.130064;stroke-linejoin:round;stroke-miterlimit:4;stroke-dasharray:none;stroke-opacity:1;paint-order:stroke fill markers"
       d="m 142.18045,146.53624 a 1.5061697,1.4416529 0 0 1 0.0277,0.27593 1.5061697,1.4416529 0 0 1 -1.50603,1.44141 1.5061697,1.4416529 0 0 1 -0.24117,-0.0185 v 5.02796 a 1.5061697,1.441653 0 0 1 0.42173,-0.0576 1.5061697,1.441653 0 0 1 1.50635,1.44175 1.5061697,1.441653 0 0 1 -0.0847,0.47613 h 20.5154 a 1.5061697,1.4416529 0 0 1 -0.0672,-0.42608 1.5061697,1.4416529 0 0 1 1.50603,-1.44175 1.5061697,1.4416529 0 0 1 0.48202,0.0761 v -5.20587 a 1.9809425,1.8836787 0 0 1 -1.80749,-1.58948 z" />
    <rect
       style="fill:none;stroke:none;stroke-width:0.1393;stroke-linejoin:round;stroke-miterlimit:4;stroke-dasharray:none;stroke-opacity:1;paint-order:stroke fill markers"
       id="rect1187-7"
       width="26.269348"
       height="9.7311983"
       x="139.6792"
       y="145.93956"
       ry="0.12897582" />
    <path
       style="fill:#4afff9;fill-opacity:1;stroke:none;stroke-width:0.025251;stroke-linejoin:round;stroke-miterlimit:4;stroke-dasharray:none;stroke-opacity:1;paint-order:stroke fill markers"
       d="m 139.78231,155.56383 c -0.0119,-0.0127 -0.0216,-2.16001 -0.0216,-4.7718 v -4.74871 h 13.05411 13.05411 l -0.008,4.76312 -0.008,4.76311 -13.02437,0.009 c -7.1634,0.005 -13.03407,-0.002 -13.04592,-0.0144 z m 23.09128,-0.47837 c -0.006,-0.0571 -0.0128,-0.23633 -0.0161,-0.39838 -0.006,-0.27 0.003,-0.3139 0.0997,-0.52506 0.2442,-0.53147 0.84173,-0.86993 1.42705,-0.80832 0.11537,0.0121 0.25697,0.0312 0.31465,0.0423 l 0.10488,0.0202 v -2.68159 -2.6816 l -0.15329,-0.0221 c -0.77264,-0.11152 -1.39383,-0.63301 -1.59365,-1.33786 l -0.0666,-0.23484 -10.44489,-2e-5 -10.44489,-1e-5 v 0.33715 c 0,0.30018 -0.01,0.35902 -0.0914,0.53659 -0.13297,0.29014 -0.35935,0.52223 -0.65721,0.67379 -0.22872,0.11638 -0.28127,0.12902 -0.60611,0.14577 l -0.35568,0.0183 v 2.57606 2.57606 l 0.37112,-0.0114 c 0.40786,-0.0125 0.64012,0.0415 0.91164,0.21196 0.19681,0.12358 0.43345,0.40697 0.53366,0.63907 0.0693,0.1605 0.0856,0.24979 0.0865,0.47434 6.5e-4,0.15699 -0.0177,0.32433 -0.0423,0.38692 -0.0239,0.0607 -0.0339,0.12681 -0.0223,0.14701 0.0149,0.0258 3.0858,0.0341 10.33819,0.028 l 10.31702,-0.009 z"
       id="path1199-3" />
    <path
       style="fill:#f0f0f0;fill-opacity:1;stroke:none;stroke-width:0.025251;stroke-linejoin:round;stroke-miterlimit:4;stroke-dasharray:none;stroke-opacity:1;paint-order:stroke fill markers"
       d="m 142.45081,154.83989 c 0.0978,-0.57793 -0.23301,-1.21677 -0.78254,-1.51133 -0.28923,-0.15504 -0.51324,-0.20475 -0.85911,-0.19064 l -0.27403,0.0112 8e-5,-2.41181 7e-5,-2.41181 0.21784,-7.8e-4 c 0.27532,-0.001 0.45385,-0.0452 0.70741,-0.17485 0.47259,-0.24167 0.7824,-0.71661 0.81084,-1.24305 l 0.0149,-0.27557 h 10.28627 10.28627 l 0.0733,0.21611 c 0.20995,0.61884 0.73553,1.10983 1.37609,1.28551 0.10906,0.0299 0.23613,0.0544 0.28238,0.0544 h 0.0841 v 2.51955 2.51954 l -0.13716,-0.0284 c -0.68674,-0.14234 -1.42419,0.2401 -1.72646,0.89535 -0.11506,0.2494 -0.1211,0.27944 -0.1211,0.60145 v 0.33892 l -10.13596,3e-5 -10.13596,2e-5 z"
       id="path1201-0" />
    <path
       style="fill:#005f73;fill-opacity:1;stroke:none;stroke-width:0.025251;stroke-linejoin:round;stroke-miterlimit:4;stroke-dasharray:none;stroke-opacity:1;paint-order:stroke fill markers"
       d="m 139.78223,152.20684 c -0.0118,-1.83998 -0.0214,-3.97949 -0.0215,-4.75446 l -2e-5,-1.40906 h 13.05878 13.05878 l -0.0207,0.28527 c -0.0114,0.1569 -0.0208,2.29641 -0.0209,4.75447 l -1.8e-4,4.4692 h -13.01641 -13.0164 z m 23.09567,2.61933 -0.0203,-0.38032 0.1186,-0.25712 c 0.14349,-0.31108 0.32884,-0.49915 0.65883,-0.66848 0.19784,-0.10153 0.27967,-0.12317 0.51635,-0.13661 0.15469,-0.009 0.36485,-0.001 0.46702,0.0165 l 0.18576,0.0325 -0.008,-2.70005 -0.008,-2.70005 -0.1736,-0.0268 c -0.42575,-0.0657 -0.93183,-0.35001 -1.1967,-0.67242 -0.14607,-0.1778 -0.34329,-0.57571 -0.37494,-0.75646 l -0.0208,-0.1186 h -10.46866 -10.46865 l -2e-5,0.31985 c -2e-5,0.28037 -0.0115,0.34574 -0.0927,0.52967 -0.11894,0.26936 -0.35648,0.51889 -0.6377,0.66987 -0.19452,0.10443 -0.26801,0.12313 -0.60082,0.15285 l -0.3792,0.0339 v 2.58745 2.58745 h 0.39754 c 0.59331,0 0.89242,0.12074 1.18765,0.4794 0.27822,0.338 0.37806,0.73718 0.28657,1.14581 -0.0337,0.15044 -0.033,0.18567 0.004,0.21079 0.025,0.017 4.54263,0.0304 10.34649,0.0307 l 10.30205,5.8e-4 z"
       id="path1213-6" />
    <path
       style="fill:#005f73;fill-opacity:1;stroke:none;stroke-width:0.0714208;stroke-linejoin:round;stroke-miterlimit:4;stroke-dasharray:none;stroke-opacity:1;paint-order:stroke fill markers"
       d="m 151.5422,154.41258 c -1.09926,-0.30013 -2.11481,-1.13216 -2.5921,-2.12368 -0.31084,-0.64575 -0.35096,-1.81279 -0.088,-2.55978 0.54403,-1.5454 2.38146,-2.66229 4.0773,-2.47841 1.81643,0.19696 3.19499,1.42076 3.51327,3.11888 0.2884,1.53862 -0.74164,3.22665 -2.37439,3.89118 -0.63905,0.26009 -1.86968,0.33376 -2.53608,0.15181 z m 2.87033,-0.79432 c 0.0141,-0.0133 0.0506,-0.25026 0.0812,-0.52651 l 0.0555,-0.50227 h -0.97114 c -0.94338,0 -1.07901,-0.0409 -0.87177,-0.26296 0.0547,-0.0586 0.10201,-0.29841 0.10523,-0.53301 l 0.006,-0.42655 h 0.41963 0.41962 l 0.0276,-0.51345 0.0276,-0.51346 h -0.64242 -0.64243 l -0.23315,-0.37749 c -0.12824,-0.20763 -0.25654,-0.53184 -0.28511,-0.72048 -0.043,-0.284 -0.0153,-0.37046 0.16089,-0.50272 0.32015,-0.24026 0.79525,-0.19254 1.35102,0.13568 0.27181,0.16053 0.50314,0.28076 0.51406,0.26719 0.0109,-0.0136 0.0667,-0.26226 0.12386,-0.55261 0.13121,-0.66604 0.0341,-0.80194 -0.73885,-1.03433 -0.92664,-0.27858 -1.87707,0.0104 -2.269,0.68986 -0.21577,0.37406 -0.23416,1.07708 -0.0411,1.57208 0.17045,0.43708 0.17532,0.40557 -0.0685,0.44267 -0.18231,0.0277 -0.20848,0.0952 -0.23296,0.60094 l -0.0276,0.56968 0.52962,-0.0267 c 0.4812,-0.0242 0.53222,-0.007 0.55816,0.18323 0.0157,0.11545 -0.0177,0.30256 -0.0743,0.41579 -0.13079,0.26184 -0.62249,0.58578 -0.88988,0.58625 -0.16528,3.9e-4 -0.20538,0.0553 -0.20538,0.28155 0,0.15465 0.0241,0.41032 0.0536,0.56816 l 0.0536,0.287 1.84047,-0.0417 c 1.01225,-0.0229 1.85201,-0.0526 1.86612,-0.0659 z"
       id="path1228-9" />
    <rect
       style="fill:none;stroke:none;stroke-width:0.345224;stroke-linejoin:round;paint-order:stroke fill markers"
       id="rect855-2-2"
       width="21.677864"
       height="1.2759544"
       x="166.03067"
       y="148.19826"
       ry="0.12905997" />
    <rect
       style="fill:none;stroke:none;stroke-width:0.136034;stroke-linejoin:round;stroke-miterlimit:4;stroke-dasharray:none;stroke-opacity:1;paint-order:stroke fill markers"
       id="rect1187-7-2"
       width="25.797928"
       height="9.4497166"
       x="165.77711"
       y="139.95734"
       ry="0.12524511" />
  </g>
</svg>
