<?xml version="1.0" encoding="UTF-8" standalone="no"?>
<svg
   xmlns:dc="http://purl.org/dc/elements/1.1/"
   xmlns:cc="http://creativecommons.org/ns#"
   xmlns:rdf="http://www.w3.org/1999/02/22-rdf-syntax-ns#"
   xmlns:svg="http://www.w3.org/2000/svg"
   xmlns="http://www.w3.org/2000/svg"
   xmlns:sodipodi="http://sodipodi.sourceforge.net/DTD/sodipodi-0.dtd"
   xmlns:inkscape="http://www.inkscape.org/namespaces/inkscape"
   width="27.404327mm"
   height="10.461819mm"
   viewBox="0 0 27.404327 10.461819"
   version="1.1"
   id="svg8"
   inkscape:version="1.0.1 (3bc2e813f5, 2020-09-07)"
   sodipodi:docname="cash4.svg">
  <defs
     id="defs2" />
  <sodipodi:namedview
     id="base"
     pagecolor="#ffffff"
     bordercolor="#666666"
     borderopacity="1.0"
     inkscape:pageopacity="0.0"
     inkscape:pageshadow="2"
     inkscape:zoom="0.7"
     inkscape:cx="-81.328043"
     inkscape:cy="-165.56232"
     inkscape:document-units="mm"
     inkscape:current-layer="layer1"
     inkscape:document-rotation="0"
     showgrid="false"
     inkscape:window-width="1920"
     inkscape:window-height="1009"
     inkscape:window-x="-8"
     inkscape:window-y="-8"
     inkscape:window-maximized="1"
     fit-margin-top="0"
     fit-margin-left="0"
     fit-margin-right="0"
     fit-margin-bottom="0" />
  <metadata
     id="metadata5">
    <rdf:RDF>
      <cc:Work
         rdf:about="">
        <dc:format>image/svg+xml</dc:format>
        <dc:type
           rdf:resource="http://purl.org/dc/dcmitype/StillImage" />
        <dc:title></dc:title>
      </cc:Work>
    </rdf:RDF>
  </metadata>
  <g
     inkscape:label="Layer 1"
     inkscape:groupmode="layer"
     id="layer1"
     transform="translate(-191.39717,-126.21031)">
    <g
       id="g1649">
      <rect
         style="fill:none;stroke:none;stroke-width:0.373056;stroke-linejoin:round;paint-order:stroke fill markers"
         id="rect855-2-2-8"
         width="23.027712"
         height="1.4026452"
         x="191.6665"
         y="135.26949"
         ry="0.14187446" />
      <path
         id="rect1142-4-9-0"
         style="fill:none;stroke:none;stroke-width:0.137254;stroke-linejoin:round;stroke-miterlimit:4;stroke-dasharray:none;stroke-opacity:1;paint-order:stroke fill markers"
         d="m 194.00648,126.84725 a 1.5712445,1.5389547 0 0 1 0.0289,0.29456 1.5712445,1.5389547 0 0 1 -1.5711,1.5387 1.5712445,1.5389547 0 0 1 -0.25159,-0.0198 v 5.36732 a 1.5712445,1.5389547 0 0 1 0.43995,-0.0615 1.5712445,1.5389547 0 0 1 1.57144,1.53906 1.5712445,1.5389547 0 0 1 -0.0883,0.50826 h 21.40178 a 1.5712445,1.5389547 0 0 1 -0.0701,-0.45483 1.5712445,1.5389547 0 0 1 1.5711,-1.53906 1.5712445,1.5389547 0 0 1 0.50285,0.0812 v -5.55722 a 2.06653,2.0108141 0 0 1 -1.8856,-1.69677 z" />
      <rect
         style="fill:none;stroke:none;stroke-width:0.147001;stroke-linejoin:round;stroke-miterlimit:4;stroke-dasharray:none;stroke-opacity:1;paint-order:stroke fill markers"
         id="rect1187-7-2-1"
         width="27.404327"
         height="10.387988"
         x="191.39717"
         y="126.21031"
         ry="0.13768081" />
      <path
         style="fill:#4afff9;fill-opacity:1;stroke:none;stroke-width:0.0266469;stroke-linejoin:round;stroke-miterlimit:4;stroke-dasharray:none;stroke-opacity:1;paint-order:stroke fill markers"
         d="m 191.50473,136.48414 c -0.0124,-0.0136 -0.0225,-2.30579 -0.0225,-5.09386 v -5.06921 h 13.61812 13.61811 l -0.009,5.08459 -0.009,5.08459 -13.58709,0.009 c -7.4729,0.005 -13.59721,-0.002 -13.60958,-0.0154 z m 24.08894,-0.51065 c -0.006,-0.0609 -0.0133,-0.25228 -0.0168,-0.42526 -0.006,-0.28823 0.003,-0.3351 0.10404,-0.5605 0.25475,-0.56735 0.8781,-0.92866 1.48871,-0.86289 0.12035,0.013 0.26806,0.0333 0.32824,0.0452 l 0.10942,0.0216 v -2.86259 -2.86259 l -0.15992,-0.0236 c -0.80602,-0.11905 -1.45405,-0.67573 -1.6625,-1.42816 l -0.0694,-0.25069 -10.89617,-1e-5 -10.89617,-2e-5 v 0.3599 c 0,0.32044 -0.0104,0.38326 -0.0953,0.57281 -0.13871,0.30972 -0.37487,0.55748 -0.68561,0.71927 -0.2386,0.12423 -0.29342,0.13772 -0.6323,0.1556 l -0.37105,0.0196 v 2.74992 2.74992 l 0.38716,-0.0122 c 0.42548,-0.0134 0.66778,0.0443 0.95103,0.22626 0.20531,0.13192 0.45218,0.43444 0.55671,0.68221 0.0723,0.17133 0.0893,0.26665 0.0902,0.50635 6.8e-4,0.16759 -0.0184,0.34622 -0.0441,0.41303 -0.0249,0.0648 -0.0354,0.13538 -0.0232,0.15693 0.0155,0.0276 3.21912,0.0364 10.78486,0.0299 l 10.76277,-0.009 z"
         id="path1199-3-2-9" />
      <path
         style="fill:#f0f0f0;fill-opacity:1;stroke:none;stroke-width:0.0266469;stroke-linejoin:round;stroke-miterlimit:4;stroke-dasharray:none;stroke-opacity:1;paint-order:stroke fill markers"
         d="m 194.28852,135.71135 c 0.102,-0.61694 -0.24308,-1.2989 -0.81635,-1.61334 -0.30173,-0.1655 -0.53541,-0.21856 -0.89622,-0.20351 l -0.28588,0.0119 8e-5,-2.57459 8e-5,-2.57459 0.22725,-8.3e-4 c 0.28722,-0.001 0.47346,-0.0482 0.73798,-0.18666 0.49301,-0.25798 0.8162,-0.76497 0.84587,-1.32694 l 0.0155,-0.29417 h 10.7307 10.73069 l 0.0765,0.2307 c 0.21902,0.6606 0.76731,1.18473 1.43554,1.37227 0.11377,0.0319 0.24633,0.058 0.29458,0.058 h 0.0877 v 2.6896 2.6896 l -0.14309,-0.0303 c -0.71641,-0.15196 -1.48572,0.2563 -1.80106,0.95577 -0.12002,0.26624 -0.12633,0.29831 -0.12633,0.64204 v 0.3618 l -10.57388,3e-5 -10.57389,3e-5 z"
         id="path1201-0-1-2" />
      <path
         style="fill:#005f73;fill-opacity:1;stroke:none;stroke-width:0.0266469;stroke-linejoin:round;stroke-miterlimit:4;stroke-dasharray:none;stroke-opacity:1;paint-order:stroke fill markers"
         d="m 191.50465,132.90058 c -0.0123,-1.96416 -0.0224,-4.24807 -0.0224,-5.07536 l -2e-5,-1.50415 h 13.62299 13.62298 l -0.0216,0.30452 c -0.0119,0.16749 -0.0217,2.4514 -0.0218,5.07536 l -1.9e-4,4.77084 h -13.57879 -13.57877 z m 24.09353,2.79612 -0.0212,-0.40599 0.12373,-0.27447 c 0.14969,-0.33208 0.34305,-0.53284 0.6873,-0.71361 0.20638,-0.10837 0.29175,-0.13148 0.53866,-0.14582 0.16137,-0.009 0.38061,-0.001 0.48719,0.0176 l 0.19379,0.0346 -0.009,-2.88228 -0.009,-2.88228 -0.1811,-0.0286 c -0.44415,-0.0701 -0.97209,-0.37363 -1.24841,-0.7178 -0.15238,-0.1898 -0.35812,-0.61457 -0.39114,-0.80752 l -0.0217,-0.12661 h -10.92096 -10.92095 l -2e-5,0.34144 c -3e-5,0.29929 -0.012,0.36907 -0.0967,0.56542 -0.12407,0.28754 -0.37188,0.55392 -0.66525,0.71508 -0.20292,0.11148 -0.27959,0.13144 -0.62678,0.16317 l -0.39558,0.0362 v 2.76209 2.76208 h 0.41472 c 0.61894,0 0.93097,0.12889 1.23896,0.51176 0.29024,0.36081 0.3944,0.78694 0.29895,1.22315 -0.0351,0.16059 -0.0344,0.1982 0.004,0.22501 0.0261,0.0181 4.7389,0.0324 10.79351,0.0328 l 10.74717,6.2e-4 z"
         id="path1213-6-2-3" />
      <path
         style="fill:#005f73;fill-opacity:1;stroke:none;stroke-width:0.0753689;stroke-linejoin:round;stroke-miterlimit:4;stroke-dasharray:none;stroke-opacity:1;paint-order:stroke fill markers"
         d="m 203.53647,135.10707 c -1.14676,-0.32039 -2.20618,-1.20858 -2.70409,-2.26702 -0.32427,-0.68933 -0.36613,-1.93514 -0.0918,-2.73254 0.56753,-1.64971 2.48434,-2.84198 4.25346,-2.64569 1.8949,0.21025 3.33302,1.51665 3.66506,3.32938 0.30086,1.64247 -0.77368,3.44443 -2.47698,4.15381 -0.66665,0.27765 -1.95046,0.35628 -2.64565,0.16206 z m 2.99434,-0.84794 c 0.0147,-0.0142 0.0528,-0.26715 0.0847,-0.56204 l 0.0579,-0.53617 h -1.0131 c -0.98414,0 -1.12563,-0.0437 -0.90943,-0.2807 0.057,-0.0625 0.10641,-0.31856 0.10977,-0.569 l 0.006,-0.45533 h 0.43775 0.43776 l 0.0288,-0.54811 0.0288,-0.54811 h -0.67018 -0.67018 l -0.24323,-0.40297 c -0.13378,-0.22164 -0.26761,-0.56774 -0.29742,-0.76911 -0.0449,-0.30316 -0.016,-0.39546 0.16784,-0.53665 0.33398,-0.25647 0.82961,-0.20553 1.40939,0.14484 0.28355,0.17137 0.52487,0.29972 0.53627,0.28522 0.0114,-0.0145 0.0695,-0.27995 0.12921,-0.58991 0.13688,-0.71099 0.0356,-0.85606 -0.77077,-1.10413 -0.96667,-0.29738 -1.95817,0.0111 -2.36704,0.73641 -0.22509,0.39932 -0.24428,1.14978 -0.0429,1.67819 0.17781,0.46659 0.18289,0.43295 -0.0714,0.47255 -0.19019,0.0296 -0.21748,0.10167 -0.24302,0.64149 l -0.0288,0.60814 0.55249,-0.0285 c 0.502,-0.0259 0.55522,-0.008 0.58228,0.1956 0.0164,0.12324 -0.0185,0.32298 -0.0775,0.44386 -0.13644,0.27951 -0.64938,0.62531 -0.92832,0.62582 -0.17243,4.1e-4 -0.21425,0.059 -0.21425,0.30055 0,0.16508 0.0251,0.43801 0.0559,0.60651 l 0.0559,0.30636 1.91999,-0.0445 c 1.05599,-0.0245 1.93202,-0.0561 1.94674,-0.0704 z"
         id="path1228-9-0-9" />
    </g>
    <rect
       style="fill:none;stroke:none;stroke-width:0.341813;stroke-linejoin:round;paint-order:stroke fill markers"
       id="rect855-2-2-8-2"
       width="21.042641"
       height="1.2886235"
       x="219.47177"
       y="140.76967"
       ry="0.13034143" />
    <path
       id="rect1142-4-9-0-3"
       style="fill:none;stroke:none;stroke-width:0.125759;stroke-linejoin:round;stroke-miterlimit:4;stroke-dasharray:none;stroke-opacity:1;paint-order:stroke fill markers"
       d="m 221.61005,133.03208 a 1.4357976,1.4138523 0 0 1 0.0264,0.27062 1.4357976,1.4138523 0 0 1 -1.43566,1.41361 1.4357976,1.4138523 0 0 1 -0.22991,-0.0182 v 4.93101 a 1.4357976,1.4138524 0 0 1 0.40203,-0.0565 1.4357976,1.4138524 0 0 1 1.43597,1.41395 1.4357976,1.4138524 0 0 1 -0.0807,0.46694 H 241.285 a 1.4357976,1.4138523 0 0 1 -0.0641,-0.41786 1.4357976,1.4138523 0 0 1 1.43566,-1.41395 1.4357976,1.4138523 0 0 1 0.4595,0.0746 v -5.10547 a 1.8883877,1.8473541 0 0 1 -1.72305,-1.55884 z" />
    <rect
       style="fill:none;stroke:none;stroke-width:0.134689;stroke-linejoin:round;stroke-miterlimit:4;stroke-dasharray:none;stroke-opacity:1;paint-order:stroke fill markers"
       id="rect1187-7-2-1-2"
       width="25.041975"
       height="9.5435438"
       x="219.22566"
       y="132.44691"
       ry="0.12648867" />
  </g>
</svg>
