<?xml version="1.0" encoding="UTF-8" standalone="no"?>
<svg
   xmlns:dc="http://purl.org/dc/elements/1.1/"
   xmlns:cc="http://creativecommons.org/ns#"
   xmlns:rdf="http://www.w3.org/1999/02/22-rdf-syntax-ns#"
   xmlns:svg="http://www.w3.org/2000/svg"
   xmlns="http://www.w3.org/2000/svg"
   xmlns:sodipodi="http://sodipodi.sourceforge.net/DTD/sodipodi-0.dtd"
   xmlns:inkscape="http://www.inkscape.org/namespaces/inkscape"
   width="195.25398mm"
   height="317.52356mm"
   viewBox="0 0 195.25399 317.52356"
   version="1.1"
   id="svg8"
   inkscape:version="1.0.1 (3bc2e813f5, 2020-09-07)"
   sodipodi:docname="england_blank.svg">
  <defs
     id="defs2">
    <filter
       inkscape:label="Electrize"
       inkscape:menu="Image Effects"
       inkscape:menu-tooltip="Imitate aged photograph"
       style="color-interpolation-filters:sRGB"
       id="filter1109">
      <feColorMatrix
         type="saturate"
         in="SourceGraphic"
         values="0"
         id="feColorMatrix1097" />
      <feColorMatrix
         values="3 0 0 0 -0.3 0 3 0 0 -0.3 0 0 3 0 -0.3 0 0 0 1 0"
         result="result0"
         id="feColorMatrix1099" />
      <feTurbulence
         baseFrequency="0.111"
         numOctaves="2"
         type="fractalNoise"
         id="feTurbulence1101" />
      <feColorMatrix
         values="0 0 0 0 0 0 0 0 0 0 0 0 0 0 0 0 0 0 255 -200"
         id="feColorMatrix1103" />
      <feGaussianBlur
         stdDeviation="1"
         id="feGaussianBlur1105" />
      <feComposite
         in2="result0"
         operator="atop"
         id="feComposite1107"
         result="fbSourceGraphic" />
      <feColorMatrix
         result="fbSourceGraphicAlpha"
         in="fbSourceGraphic"
         values="0 0 0 -1 0 0 0 0 -1 0 0 0 0 -1 0 0 0 0 1 0"
         id="feColorMatrix1145" />
      <feComposite
         in2="fbSourceGraphic"
         id="feComposite1147"
         in="fbSourceGraphic"
         operator="arithmetic"
         k1="0.239521"
         k2="1"
         result="composite1"
         k3="0"
         k4="0" />
      <feConvolveMatrix
         id="feConvolveMatrix1149"
         in="composite1"
         kernelMatrix="0 250 0 250 -1718 250 0 250 0 "
         order="3 3"
         result="convolve1" />
      <feBlend
         in2="composite1"
         id="feBlend1151"
         in="convolve1"
         mode="darken"
         result="blend1" />
      <feGaussianBlur
         id="feGaussianBlur1153"
         in="blend1"
         stdDeviation="0.129641"
         result="blur1" />
      <feTurbulence
         id="feTurbulence1155"
         baseFrequency="1 1"
         numOctaves="1"
         seed="446"
         type="fractalNoise"
         result="turbulence1" />
      <feColorMatrix
         id="feColorMatrix1157"
         values="1 0 0 0 0 0 1 0 0 0 0 0 1 0 0 0 0 0 19.1916 -0.838323 "
         result="colormatrix1" />
      <feColorMatrix
         id="feColorMatrix1159"
         type="saturate"
         values="1"
         result="colormatrix2" />
      <feBlend
         in2="blur1"
         id="feBlend1161"
         in="colormatrix2"
         mode="normal"
         result="blend2" />
      <feColorMatrix
         id="feColorMatrix1163"
         in="blend2"
         type="saturate"
         values="1"
         result="colormatrix3" />
      <feComponentTransfer
         id="feComponentTransfer1165"
         in="colormatrix3"
         result="component1">
        <feFuncR
           id="feFuncR1167"
           type="discrete"
           tableValues="0 1 1" />
        <feFuncG
           id="feFuncG1169"
           type="discrete"
           tableValues="0 1 1" />
        <feFuncB
           id="feFuncB1171"
           type="discrete"
           tableValues="0 1 1" />
      </feComponentTransfer>
      <feColorMatrix
         id="feColorMatrix1173"
         values="1 0 0 0 0 0 1 0 0 0 0 0 1 0 0 -0.2125 -0.7154 -0.0721 1 0 "
         result="colormatrix4" />
      <feColorMatrix
         id="feColorMatrix1175"
         in="colormatrix4"
         values="1 0 0 0 0 0 1 0 0 0 0 0 1 0 0 0 0 0 15 0 "
         result="colormatrix5" />
      <feComposite
         in2="fbSourceGraphic"
         id="feComposite1177"
         operator="in"
         result="fbSourceGraphic" />
      <feColorMatrix
         result="fbSourceGraphicAlpha"
         in="fbSourceGraphic"
         values="0 0 0 -1 0 0 0 0 -1 0 0 0 0 -1 0 0 0 0 1 0"
         id="feColorMatrix1179" />
      <feComposite
         in2="fbSourceGraphic"
         id="feComposite1181"
         in="fbSourceGraphic"
         operator="arithmetic"
         k1="0.239521"
         k2="1"
         result="composite1"
         k3="0"
         k4="0" />
      <feConvolveMatrix
         id="feConvolveMatrix1183"
         in="composite1"
         kernelMatrix="0 250 0 250 -1718 250 0 250 0 "
         order="3 3"
         result="convolve1" />
      <feBlend
         in2="composite1"
         id="feBlend1185"
         in="convolve1"
         mode="darken"
         result="blend1" />
      <feGaussianBlur
         id="feGaussianBlur1187"
         in="blend1"
         stdDeviation="0.129641"
         result="blur1" />
      <feTurbulence
         id="feTurbulence1189"
         baseFrequency="1 1"
         numOctaves="1"
         seed="446"
         type="fractalNoise"
         result="turbulence1" />
      <feColorMatrix
         id="feColorMatrix1191"
         values="1 0 0 0 0 0 1 0 0 0 0 0 1 0 0 0 0 0 19.1916 -0.838323 "
         result="colormatrix1" />
      <feColorMatrix
         id="feColorMatrix1193"
         type="saturate"
         values="1"
         result="colormatrix2" />
      <feBlend
         in2="blur1"
         id="feBlend1195"
         in="colormatrix2"
         mode="normal"
         result="blend2" />
      <feColorMatrix
         id="feColorMatrix1197"
         in="blend2"
         type="saturate"
         values="1"
         result="colormatrix3" />
      <feComponentTransfer
         id="feComponentTransfer1199"
         in="colormatrix3"
         result="component1">
        <feFuncR
           id="feFuncR1201"
           type="discrete"
           tableValues="0 1 1" />
        <feFuncG
           id="feFuncG1203"
           type="discrete"
           tableValues="0 1 1" />
        <feFuncB
           id="feFuncB1205"
           type="discrete"
           tableValues="0 1 1" />
      </feComponentTransfer>
      <feColorMatrix
         id="feColorMatrix1207"
         values="1 0 0 0 0 0 1 0 0 0 0 0 1 0 0 -0.2125 -0.7154 -0.0721 1 0 "
         result="colormatrix4" />
      <feColorMatrix
         id="feColorMatrix1209"
         in="colormatrix4"
         values="1 0 0 0 0 0 1 0 0 0 0 0 1 0 0 0 0 0 15 0 "
         result="colormatrix5" />
      <feComposite
         in2="fbSourceGraphic"
         id="feComposite1211"
         operator="in"
         result="fbSourceGraphic" />
      <feColorMatrix
         result="fbSourceGraphicAlpha"
         in="fbSourceGraphic"
         values="0 0 0 -1 0 0 0 0 -1 0 0 0 0 -1 0 0 0 0 1 0"
         id="feColorMatrix1213" />
      <feGaussianBlur
         id="feGaussianBlur1215"
         stdDeviation="2"
         result="blur"
         in="fbSourceGraphic" />
      <feComponentTransfer
         id="feComponentTransfer1217"
         in="blur"
         result="fbSourceGraphic">
        <feFuncR
           id="feFuncR1219"
           type="table"
           tableValues="0 1 0 1 0" />
        <feFuncG
           id="feFuncG1221"
           type="table"
           tableValues="0 1 0 1 0" />
        <feFuncB
           id="feFuncB1223"
           type="table"
           tableValues="0 1 0 1 0" />
      </feComponentTransfer>
      <feColorMatrix
         result="fbSourceGraphicAlpha"
         in="fbSourceGraphic"
         values="0 0 0 -1 0 0 0 0 -1 0 0 0 0 -1 0 0 0 0 1 0"
         id="feColorMatrix1225" />
      <feGaussianBlur
         id="feGaussianBlur1227"
         stdDeviation="2"
         result="blur"
         in="fbSourceGraphic" />
      <feComponentTransfer
         id="feComponentTransfer1229"
         in="blur"
         result="component">
        <feFuncR
           id="feFuncR1231"
           type="table"
           tableValues="0 1 0 1 0" />
        <feFuncG
           id="feFuncG1233"
           type="table"
           tableValues="0 1 0 1 0" />
        <feFuncB
           id="feFuncB1235"
           type="table"
           tableValues="0 1 0 1 0" />
      </feComponentTransfer>
    </filter>
  </defs>
  <sodipodi:namedview
     id="base"
     pagecolor="#ffffff"
     bordercolor="#666666"
     borderopacity="1.0"
     inkscape:pageopacity="0.0"
     inkscape:pageshadow="2"
     inkscape:zoom="0.9899495"
     inkscape:cx="403.25264"
     inkscape:cy="880.58946"
     inkscape:document-units="mm"
     inkscape:current-layer="g997"
     inkscape:document-rotation="0"
     showgrid="false"
     inkscape:window-width="1920"
     inkscape:window-height="1009"
     inkscape:window-x="-8"
     inkscape:window-y="-8"
     inkscape:window-maximized="1"
     fit-margin-top="0"
     fit-margin-left="0"
     fit-margin-right="0"
     fit-margin-bottom="0" />
  <metadata
     id="metadata5">
    <rdf:RDF>
      <cc:Work
         rdf:about="">
        <dc:format>image/svg+xml</dc:format>
        <dc:type
           rdf:resource="http://purl.org/dc/dcmitype/StillImage" />
        <dc:title></dc:title>
      </cc:Work>
    </rdf:RDF>
  </metadata>
  <g
     inkscape:label="Layer 1"
     inkscape:groupmode="layer"
     id="layer1"
     transform="translate(-83.760803,-59.361571)">
    <g
       id="g997"
       transform="matrix(0.72,0,0,0.72,50.788582,61.074539)">
      <path
         style="fill:none;stroke:#000000;stroke-width:0.529167;stroke-linejoin:round;stroke-opacity:1;paint-order:stroke fill markers"
         d="m 170.25069,159.29264 c 2.94372,2.84724 7.67893,0.55924 10.95805,1.87088 1.5481,0.61924 2.85704,2.52892 4.81085,2.13816 2.57542,-0.51508 3.31812,-4.19812 5.07812,-5.07812 1.9369,-0.96845 4.06468,-0.72199 6.1472,-1.06908 0.63776,-0.1063 1.71882,-0.61057 2.40542,-0.26727 1.78022,0.89011 3.27433,3.50805 5.34539,4.54358 2.72828,1.36414 7.31535,2.77177 9.35444,4.81085 1.5689,1.56891 2.27358,8.22123 3.74177,10.42351 0.86358,1.29538 3.05401,1.56444 3.74177,2.93997 1.8272,3.65439 5.40513,8.52429 6.41447,12.56167 0.77303,3.0921 -2.90715,7.01462 -1.60361,9.6217 1.13043,2.26086 2.59662,4.31537 3.4745,6.94901 1.8771,5.6313 1.38363,11.25684 6.94901,14.96709 9.61372,5.63859 17.10268,12.82637 24.5888,20.31249 1.60215,1.60216 3.96168,6.09984 5.87993,8.01808 0.90283,0.90284 -5.67911,0.29042 -3.74178,4.81086 0.52172,1.21733 2.05398,1.68826 2.93997,2.67269 3.7396,4.15511 5.07812,6.00553 5.07812,12.02713 0,0.78289 1.22935,1.92461 1.06908,2.40543 -1.5514,4.65418 -15.23437,-5.94865 -15.23437,-3.47451 0,0.44545 0.89311,-0.0443 1.33635,0 2.32963,0.23296 4.59319,0.85141 6.1472,2.40543 1.53732,1.53732 2.4252,3.96694 3.74177,5.61266 2.50895,3.13618 6.04259,5.34922 8.28536,9.08716 -0.17659,1.18282 -0.2581,1.90757 0,2.93997 0.57012,2.28048 2.47236,4.87733 1.60362,7.48354 -0.72592,2.17776 -3.34494,1.76886 -4.54358,3.20724 -0.68633,0.82359 -4.37752,7.11508 -3.74178,7.75081 0.52385,0.52385 3.10948,-0.56712 4.00904,-0.26727 0.66374,0.22125 5.6223,4.7916 6.1472,3.74178 0.74557,-1.49113 -0.43545,-4.90994 0.80181,-6.1472 1.37361,-1.37361 4.55945,-1.35221 5.87993,-2.6727 0.21284,-0.21284 4.04105,1.19277 4.54358,1.33635 2.89866,0.82819 6.3839,0.43049 9.35444,0.80181 2.3665,0.29581 3.97332,2.13816 6.1472,2.13816 11.2626,5.2519 10.94104,19.27742 6.41447,28.33057 -0.784,1.56798 0.78399,4.31194 0,5.87993 -0.91538,1.83074 -3.69614,2.84868 -4.54359,4.54358 -1.77599,3.55199 -3.83738,7.14022 -5.61266,10.69078 -0.9739,1.94781 -5.74545,-1.47251 -6.41447,0.53454 -1.75004,5.25013 -1.3578,5.63412 -5.34539,9.6217 -0.43292,0.43292 -9.08716,-0.71042 -9.08716,5.61266 0,0.53454 1.06908,0 1.60362,0 2.13815,0 4.27631,0 6.41447,0 0.95658,0 0.84626,0.62996 1.87088,1.06908 3.93797,1.6877 1.50417,4.25974 3.20724,4.54358 4.293,0.7155 8.07271,-3.4745 12.56166,-3.4745 0.38462,1.04822 1.71224,3.52454 1.06908,4.81085 -2.28097,4.56195 -8.96491,6.45998 -10.15624,11.22532 -0.0978,0.39119 -1.85112,5.34539 -1.33635,5.34539 1.07279,0 -2.14904,0.44363 -3.20723,0.26727 -2.01235,-0.33539 -2.80632,-1.20272 -4.81085,-0.80181 -2.32243,0.46449 -8.20983,3.05617 -9.35444,5.34539 -0.13475,0.2695 -2.71453,2.93997 -2.40542,2.93997 1.31539,0 -2.34656,-1.19413 -3.47451,-1.87089 -3.44345,-2.06607 -7.04901,-0.44763 -10.15624,-1.06908 -3.7738,-1.69405 -9.93404,-0.68468 -13.89801,0.80181 -0.99245,0.37217 -3.84643,2.67269 -4.54359,2.67269 -0.13087,0 -3.32886,-3.26804 -4.27631,-3.74177 -2.28639,-1.1432 -4.50641,1.08766 -6.68174,0 -1.72886,-0.86443 -2.71959,-3.25413 -4.00904,-4.54358 -0.93712,-0.93712 -2.00051,-1.73324 -2.93996,-2.6727 -0.14087,-0.14086 -0.40814,-0.6754 -0.26727,-0.53454 2.94165,2.94165 4.63824,6.31981 1.87088,9.08717 -0.37832,0.37833 -5.40024,3.74177 -5.34539,3.74177 0.66706,0 -0.54406,-2.13604 -2.93996,-1.60362 -2.14078,0.47573 -4.28537,2.40543 -6.1472,2.40543"
         id="path847" />
      <path
         style="fill:none;stroke:#000000;stroke-width:0.529167;stroke-linejoin:round;stroke-opacity:1;paint-order:stroke fill markers"
         d="m 228.78271,406.51694 c 4.26413,-6.57074 6.68646,-1.24568 12.02713,0.53454 -2.40976,2.56665 -4.48228,4.21502 -6.41446,6.14721 -2.17738,-1.28768 -4.18024,-4.44751 -5.34539,-5.61266"
         id="path849" />
      <path
         style="fill:none;stroke:#000000;stroke-width:0.529167;stroke-linejoin:round;stroke-opacity:1;paint-order:stroke fill markers"
         d="m 215.41924,407.05148 c 0.0682,-0.80897 -1.12274,-1.35655 -1.48472,-0.63259 -0.51623,1.03245 4.18691,1.01028 2.17337,3.02381 -3.17915,3.17916 -11.67792,-1.55125 -13.04018,-0.18899 -0.24959,0.24958 0.40922,1.25892 0.47247,1.51191 0.11389,0.45556 -0.0945,1.1113 -0.0945,1.60639 0,0.90816 -1.22842,1.81766 -1.22842,1.79538 0,-1.0437 0.22356,-0.93572 -0.18899,-2.17334 -0.30774,-0.92323 -1.84511,-1.36382 -2.55134,-1.79541 -1.13481,-0.69347 -10.69488,-6.13357 -11.81175,-5.57514 -0.81304,0.40654 -1.06512,1.61925 -1.79539,1.98438 -0.90506,0.45254 -3.48439,-0.86233 -4.15774,-0.18899 -0.65676,0.65677 -1.44179,1.52818 -2.26785,2.07888 -0.41143,0.27427 -1.04021,0.31549 -1.41742,0.56695"
         id="path851" />
      <path
         style="fill:none;stroke:#000000;stroke-width:0.529167;stroke-linejoin:round;stroke-opacity:1;paint-order:stroke fill markers"
         d="m 178.02678,409.06472 c -5.29307,0.55187 -5.05336,4.93421 -7.37053,8.40997 5.44662,-1.20203 1.95956,4.40639 0.56696,5.10269 -0.9514,0.47571 -2.18476,0.67287 -2.83482,1.32292 -0.54725,0.54725 0.88985,2.13396 0.37798,2.64583 -0.0969,0.0969 -1.41627,0.42351 -1.88988,1.13393 -2.61358,-1.3641 -3.53351,-2.90068 -5.66964,-3.96875 -1.54263,-0.77131 -2.8904,0.70038 -4.72471,-1.13393 0.11198,-0.59674 -0.76465,-4.91369 -1.88988,-4.91369 -0.19531,0 -0.12431,1.38255 -0.18899,1.51191 -0.69153,1.38306 -1.70089,2.40112 -1.70089,4.15773 -5.84996,-5.95663 -9.01656,-0.75595 -12.47321,-0.75595 -1.31351,0 -2.20484,-0.25201 -3.2128,0.75595 -1.08516,1.08516 0.75988,2.63797 0.56696,3.02381 -0.80392,1.60785 -3.50918,0.90415 -4.34672,1.32292 -0.36998,0.18499 -0.35177,1.70089 -0.94494,1.70089 -0.24873,0 -0.34249,-2.46838 -0.37798,-2.64583 -2.57694,0.32969 -2.53761,2.53761 -3.96875,3.96875 -0.24644,0.24644 -1.32884,0.006 -1.70089,0.37798 -1.1784,1.17839 3.57678,1.11993 3.59077,1.13392 0.18713,0.18714 1.52168,2.64258 1.51191,2.64584 -0.65468,0.21822 -1.93463,-0.33323 -2.45685,0.18899 -0.27584,0.27583 -2.27153,3.96507 -3.02381,3.21279 -0.0119,-0.0119 0.49625,-1.58262 0.18899,-1.88988 -1.69156,-1.69156 -4.20737,-2.69547 -6.04762,-4.53571 -0.54141,-0.54141 -1.40249,-2.7453 -2.26786,-2.45685 -3.18296,1.06099 0.26427,4.19565 -4.7247,5.85863 -2.57592,-6.71719 1.66186,-7.52049 5.48066,-11.33928 0.44545,-0.44545 0.68848,-1.95736 1.13392,-1.51191 0.49447,0.49447 0.29751,1.08029 0.94494,1.51191 0.9565,0.63766 4.16129,-2.22461 4.53572,-2.64584 0.64973,-0.73094 0.87567,-1.82061 1.5119,-2.45684 1.03591,-1.03591 3.68304,-1.88542 4.34673,-3.2128 1.22728,-2.45455 0.34466,-5.66964 4.53571,-5.66964 2.11469,-0.33193 3.60562,-2.47169 5.10268,-3.96875 0.26581,-0.26581 -0.006,-1.49903 0.18899,-1.88988 0.71863,-1.43725 2.56041,-2.1333 2.83482,-3.77976 0.15685,-0.94107 -1.77023,-5.60031 -0.75595,-6.61459 3.81431,-3.81431 5.99866,0.78044 8.69345,-0.56696 0.002,-8.3e-4 1.53327,-7.6236 1.7009,-8.12649 5.24855,-4.22267 16.33575,-4.33017 22.86755,-3.02381 1.72995,0.34599 3.81084,1.49717 5.48066,2.26786 0.88776,0.40973 5.09381,3.41065 6.23661,2.26786 1.13381,-1.13381 -1.61657,-5.78596 -0.75596,-7.9375 0.9224,-2.306 5.95845,-4.30747 7.37054,-6.4256"
         id="path853" />
      <path
         style="fill:none;stroke:#000000;stroke-width:0.529167;stroke-linejoin:round;stroke-opacity:1;paint-order:stroke fill markers"
         d="m 194.46875,372.11756 c -1.05063,-0.99674 5.47414,-5.36988 6.42559,-7.74851 0.30023,-0.75059 -0.19669,-1.85906 0,-2.64583 0.0617,-0.2468 0.43925,-0.88368 0.18899,-1.13395 -0.54177,-0.54176 -5.72301,6.11688 -6.80357,6.42562 -2.23556,0.63873 -5.79416,-0.17185 -7.74851,0.94493 -3.00355,1.71633 -0.1493,4.11805 -1.70089,5.66965 -0.42899,0.42897 -8.9309,0.97303 -10.01637,0.75594 -1.95699,-0.3914 -7.81939,-6.59884 -10.39435,-8.31548 -3.7596,-2.5064 -2.30969,3.83863 -5.29167,2.64583 -1.01182,-0.40473 -2.9943,-0.57287 -3.77976,-1.13392 -1.10283,-0.78775 -1.67717,-1.95186 -3.02381,-2.45684 -4.58399,-1.719 -4.58093,-2.64584 0.18899,-2.64584 1.19097,0 -2.31163,-3.12981 -2.45684,-3.21281 -1.47261,-0.84148 -2.98512,1.02979 -4.15774,1.32292 -0.88936,0.22236 -1.94547,-0.22233 -2.83482,0 -0.32121,0.0803 -0.48341,0.88328 -0.56697,1.13395 -1.91299,-0.33423 -3.24813,2.95528 -4.53571,3.21279 -0.53841,0.10768 -2.17428,-0.66054 -2.45685,-0.37797 -0.33971,0.33971 -0.80606,1.56202 -1.13392,1.88988 -0.22243,0.22242 -1.52351,0 -1.88989,0 -3.89364,0 -2.57219,-2.77098 -3.0238,-5.48066 1.63413,0.40854 0.99242,0.37798 1.88988,0.37798 1.13567,0 -2.22004,-0.5824 -3.2128,-1.13393 -3.57555,-1.98641 -0.22418,4.65433 -2.64583,-0.18899 -0.5523,-1.10459 3.28034,-2.71338 3.77976,-3.2128 -1.49685,-2.09639 -2.90334,-4.51287 -5.66965,-3.59077"
         id="path855" />
      <path
         style="fill:none;stroke:#000000;stroke-width:0.529167;stroke-linejoin:round;stroke-opacity:1;paint-order:stroke fill markers"
         d="m 123.59821,353.21875 c 1.44852,0.96568 2.82638,-2.57721 4.34673,-3.59077 4.30753,-2.87169 1.89368,-0.70966 5.85863,-1.7009 0.81245,-0.20308 1.55769,-0.28548 2.45685,-0.18898 2.52614,-0.84205 4.23985,-3.9638 5.66964,-4.53572 2.17213,-0.86885 4.65952,-2.05714 6.99256,-2.83482 0.35981,-0.11994 5.67335,-6.05503 6.04762,-6.80357 0.84506,-1.69012 0.85834,-3.79555 1.70089,-5.48066 0.47666,-0.95332 3.02381,-4.13268 3.02381,-4.91369 0,-0.34509 -3.0497,0.35209 -3.2128,0.18899 -0.21281,-0.21281 -1.01022,-1.17447 -1.13393,-1.32292 -1.44907,-1.73888 1.66463,-5.44438 2.45685,-6.2366 0.23547,-0.23547 -2.47291,-2.875 -2.83482,-3.77976 -0.73177,-1.82942 1.62137,-3.89412 2.83482,-4.7247 -3.69176,0 -7.85573,-0.45977 -10.58334,2.26785 -0.90353,0.90352 0.26857,3.5112 -0.75595,4.53572 -0.27337,0.27337 -2.16549,0.0735 -2.64583,-0.56697 -0.34627,-0.4617 0.59994,-1.47892 0.18899,-1.8899 -0.28804,-0.28802 -2.51547,0.37799 -2.83482,0.37799 -2.14962,0 -1.27873,0.15279 -2.64584,-0.18899 1.88042,-3.52948 6.04402,-4.65689 8.50447,-7.93749 0.90003,-1.20004 0.18599,-3.02081 1.13393,-3.96875 0.53479,-0.53479 4.88402,-3.99842 4.7247,-4.15774 -0.4638,-0.4638 -3.08618,0.78761 -3.96875,0.56696 -1.48578,-0.37144 -7.07691,-5.08239 -7.55952,-6.04762 -0.006,-0.0113 0.97017,-4.3972 1.32291,-5.10267 0.68641,-1.37283 11.76306,-3.20699 10.20536,3.02381 1.79252,-0.43187 3.62865,-0.85038 5.10268,0.37797 2.90327,2.41939 -3.40179,2.32362 -3.40179,5.10268 0,0.45427 0.73951,-0.53057 1.13393,-0.75595 1.60885,-0.91934 4.09581,-0.69403 5.48066,-2.07887 1.09937,-1.09938 1.39915,-2.60825 3.21279,-3.2128 4.3531,3.82012 4.334,1.83113 8.69346,0.37798 1.13809,-0.37937 3.85001,0.49671 4.7247,-0.37798 0.11657,-0.11657 0.22902,-1.13393 0.56696,-1.13393 0.0124,0 -0.0177,0.89186 0,0.94494 0.18367,0.55099 0.88583,0.75148 1.32292,1.13393 1.83936,1.60944 3.39706,3.40021 5.66964,4.15774 -2.4457,-5.53157 -5.2057,-4.99965 -0.37797,-9.82738 1.02158,-1.02159 1.60981,3.92662 1.88988,4.34673 0.56046,0.84068 6.2366,2.46713 6.2366,0.94494 0,-1.61008 -4.81777,-1.41314 -5.29166,-2.83483 -0.58428,-1.75283 -2.26786,-3.2223 -2.26786,-3.02381 0,0.26541 -0.18899,-2.20511 -0.18899,-4.53571 0,-2.5634 1.70089,-4.35471 1.70089,-6.61458 -1.46223,-1.72247 0.60182,-3.26239 0.18899,-4.91369 -0.25223,-1.00895 -1.94495,-1.59075 -1.32291,-2.83482 0.55433,-1.10866 2.15646,-1.40052 2.83482,-2.07887 1.20378,-1.20379 1.56091,-4.30478 2.07887,-5.85863"
         id="path857" />
      <path
         style="fill:none;stroke:#000000;stroke-width:0.529167;stroke-linejoin:round;stroke-opacity:1;paint-order:stroke fill markers"
         d="m 190.87798,255.51191 c -0.3973,-0.79461 -0.73533,-1.04807 -0.56697,-1.88989 0.55713,-2.78566 4.68649,0.49054 1.5119,-5.85863 -0.29448,-0.58898 -0.0926,-1.5082 -0.37797,-2.07887 -0.35011,-0.70021 -3.07087,5.81157 -3.59078,5.29167 -0.92628,-0.92629 -0.59996,-2.48984 -1.5119,-3.40179 -0.60588,-0.60587 -2.46206,-2.27828 -2.07887,-1.5119 2.39146,4.78291 0.86727,5.18035 -2.45684,8.50446"
         id="path859" />
      <path
         style="fill:none;stroke:#000000;stroke-width:0.529167;stroke-linejoin:round;stroke-opacity:1;paint-order:stroke fill markers"
         d="m 170.08928,233.77827 c 1.78245,2.34904 3.97826,4.74372 5.29167,7.37054 0.54392,1.08784 -0.14881,4.19791 0.75595,5.10268 2.1849,2.1849 3.87688,5.62635 5.66965,8.31547"
         id="path861" />
      <path
         style="fill:none;stroke:#000000;stroke-width:0.529167;stroke-linejoin:round;stroke-opacity:1;paint-order:stroke fill markers"
         d="m 170.08928,233.77827 c 2.2889,-0.76295 -1.72469,-2.05506 -0.37797,-3.40178 0.38029,-0.38029 5.94365,-8.84455 6.04762,-9.26042 0.45502,-1.82009 -2.15421,-5.45554 0.75595,-6.4256 1.08002,-0.36 2.01643,0.14681 3.02381,-0.18898 0.10687,-0.0356 -0.55067,-0.69056 -0.56697,-0.75596 -0.13535,-0.54142 0.0331,-2.11199 0.37798,-2.45684 0.0459,-0.0459 4.87913,1.68171 5.66964,0.56696 0.75745,-1.66256 -3.34399,-2.84926 -4.91369,-2.45684 -1.52316,0.38079 -2.15921,1.32292 -3.96875,1.32292 -0.92078,0 -5.36266,-2.12586 -6.04761,-0.75596 -0.31345,0.6269 2.47858,4.90645 1.88988,5.10268 -1.13515,0.37838 -2.61478,-0.29124 -3.77977,0 -0.61207,0.15302 -1.00886,0.79764 -1.70089,0.56697 -0.45216,-0.15072 -1.07963,-0.75596 -1.5119,-0.75596 -0.66306,0 -0.25888,3.81471 -0.94494,4.15774 -0.73897,0.36949 -4.02611,2.90064 -4.91369,2.45685 -1.10492,-0.55246 -0.84171,-2.59422 -1.7009,-3.02381 -0.89287,-0.44644 -1.90713,0.8132 -2.64583,0.56696 -1.79616,-0.59872 -5.2258,-2.54703 -6.04762,-3.77976"
         id="path863" />
      <path
         style="fill:none;stroke:#000000;stroke-width:0.529167;stroke-linejoin:round;stroke-opacity:1;paint-order:stroke fill markers"
         d="m 148.73363,215.25744 c -0.31498,0 -0.63937,-0.0764 -0.94494,0 -0.16052,0.0401 1.7569,3.70279 1.88988,3.96875 0.70387,1.40775 0,5.75378 0,7.37053 0,0.20521 -2.24602,-1.25264 -2.45685,-1.32291 -1.09307,-0.36436 -2.44344,-1.31622 -3.59077,-1.88988 -1.536,-0.76801 -0.22186,-2.47877 -1.32292,-3.2128 -1.4826,-0.9884 -4.3632,-1.90636 -5.48065,-3.02381 -1.79885,-1.79885 -4.17105,3.38182 -3.40179,4.53571"
         id="path865" />
      <path
         style="fill:none;stroke:#000000;stroke-width:0.529167;stroke-linejoin:round;stroke-opacity:1;paint-order:stroke fill markers"
         d="m 133.42559,221.68303 c -0.063,-0.31498 -0.18899,-0.62372 -0.18898,-0.94494 0,-0.44715 1.88988,6.89419 1.88988,6.23661 0,-0.96645 -0.88409,0.81681 -1.51191,0.18899 -0.44246,-0.44246 -1.04038,-1.04038 -1.5119,-1.51191 -0.51524,-0.51523 0.38209,-2.25552 0.18898,-2.83482 -0.42638,-1.27915 -2.65574,-1.71577 -3.40178,-2.83482 -0.23492,-0.35238 0.0691,-1.47517 0,-1.88988 -0.42631,-2.55784 -1.51992,-2.84284 -3.2128,-4.53571 -0.13353,-0.13354 2.08135,-7.17907 5.10268,-4.15774"
         id="path867" />
      <path
         style="fill:none;stroke:#000000;stroke-width:0.529167;stroke-linejoin:round;stroke-opacity:1;paint-order:stroke fill markers"
         d="m 130.77976,209.39881 c -1.10267,-5.88849 3.96058,-7.83075 6.4256,-11.52828 0.61707,-0.92561 0.0185,-2.51232 0.37797,-3.59077 0.65754,-1.97261 3.528,-5.48131 3.77976,-6.23661"
         id="path869" />
      <path
         style="fill:none;stroke:#000000;stroke-width:0.529167;stroke-linejoin:round;stroke-opacity:1;paint-order:stroke fill markers"
         d="m 143.81994,164.04166 c -1.25992,0 -2.51984,0 -3.77976,0 -0.31904,0 -3.93902,-0.42257 -3.96875,-0.37797 -2.09459,3.14188 -0.56697,6.5837 -0.56697,10.01637 0,0.47372 -1.55429,3.1916 -1.5119,3.2128 2.34435,1.17217 7.55952,3.73396 7.55952,6.99255 0,0.3963 0.37367,7.53364 -0.18899,4.15774"
         id="path871" />
      <path
         style="fill:none;stroke:#000000;stroke-width:0.529167;stroke-linejoin:round;stroke-opacity:1;paint-order:stroke fill markers"
         d="m 143.81994,164.04166 c -3.2452,-0.84648 -7.07203,-2.42679 -8.50447,-5.29166 -0.0421,-0.0841 0.0317,-1.13393 0,-1.13393 -0.38019,0 -0.46346,4.20722 -0.56696,4.7247 -0.46771,2.33854 -3.22801,3.84061 -3.77976,6.04762 -0.25398,1.0159 0.75821,4.91143 0.37797,5.29167 -1.13285,1.13285 -8.15674,-6.29713 -8.69345,-7.37054 -0.063,-0.12599 -0.88194,0.12599 -0.94494,0 -0.4418,-0.8836 1.19257,-4.47707 0.37798,-5.29166 -0.2305,-0.23051 -4.08942,4.03706 -2.64584,5.48065 0.95519,0.95519 3.59078,3.39187 3.59078,4.91369 0,2.00064 -3.27084,2.68901 -3.77976,4.7247 -0.20868,0.8347 0.38701,2.24979 0,3.02381 -0.60346,1.20692 -1.36839,2.44973 -1.7009,3.77976 -0.61496,2.45984 1.57157,6.49525 0.56697,8.50447 -0.32703,0.65405 -0.99702,1.186 -1.51191,1.70089 -0.75691,0.75692 -4.60232,4.6581 -6.04762,3.2128 -0.82768,-0.82769 -0.052,-3.74432 0.18899,-4.34673 1.22069,-3.05171 3.62352,-7.65029 2.45685,-11.15029 -0.68314,-2.04941 -0.70851,-3.02459 -0.18899,-5.10268 0.31941,-1.27765 2.26786,-0.92511 2.26786,-2.64584"
         id="path873" />
      <path
         style="fill:none;stroke:#000000;stroke-width:0.529167;stroke-linejoin:round;stroke-opacity:1;paint-order:stroke fill markers"
         d="m 128.13393,178.21577 c -0.54669,-0.83525 -0.98303,-1.53475 -1.88988,-2.07887 -0.74433,-0.44659 -1.78306,-0.1479 -2.45685,0.18899 -4.56102,2.28051 1.01713,10.84451 3.59077,13.41816 0.39244,0.39243 0.43385,-1.86852 0.56697,-2.26786 0.62789,-1.88368 2.09115,-2.98695 1.32292,-5.29167 -0.42683,-1.28047 -1.13393,-2.57655 -1.13393,-3.96875 z"
         id="path875" />
      <path
         style="fill:none;stroke:#000000;stroke-width:0.529167;stroke-linejoin:round;stroke-opacity:1;paint-order:stroke fill markers"
         d="m 115.28274,173.11309 c -0.44098,-0.88194 -0.8395,-1.78642 -1.32292,-2.64583 -0.84057,-1.49435 -1.96217,-2.80436 -2.45685,-4.53571 -0.18987,-0.66457 1.93451,-1.97913 2.26786,-2.64584 0.64659,-1.29317 -0.77301,-3.7627 0.37798,-4.91369 1.01498,-1.01498 3.85175,-4.76972 3.02381,-6.42559 -0.53628,-1.07255 -4.25126,0.46953 -4.53572,1.32291 -0.67116,2.0135 0.2172,3.82771 -0.18898,5.85863 -0.10278,0.51386 -6.99711,9.83648 -8.12649,12.09524 -0.3826,0.76519 -1.4784,0.89468 -1.88988,1.51191 -1.61172,2.41758 3.46351,5.20809 -5.858635,8.31547 -1.409311,0.46977 -1.784672,-7.39148 -3.96875,-7.9375 -0.672057,-0.16801 -3.00474,0.39705 -3.023809,0.37798 -1.51644,-1.51644 3.047725,-6.43755 4.157737,-6.99256 2.304336,-1.15217 4.357769,1.18956 5.291667,0.56696 1.63276,-1.0885 2.55319,-4.16143 3.40179,-5.85863 0.86899,-1.73798 8.22395,-6.86204 10.01637,-7.9375 0.35414,-0.9305 3.27188,-8.3036 3.02381,-8.88244 -0.099,-0.23104 -1.39188,-1.82091 -0.94494,-2.26785 1.58857,-1.58857 4.15219,-1.88434 5.85863,-3.59078 -2.71114,-3.4866 5.54051,-9.89665 4.7247,-11.52827 -1.51,-3.01999 -3.52258,1.54658 -4.7247,2.26786 -1.56366,0.93819 -3.65222,1.11189 -5.10268,2.07887 -1.17947,0.78631 -3.23696,3.66182 -3.59078,3.77976 -1.12144,0.37381 -2.29286,-0.67396 -3.21279,-1.13393 -5.58431,-2.79215 -2.17913,-4.44698 -5.29167,-7.55952 -0.57034,-0.57034 -4.69939,-1.39886 -4.346726,-2.45685 0.670326,-2.01098 5.095516,-1.00555 6.614586,-1.5119 2.52327,-0.84109 3.05008,-3.61705 4.53571,-5.10268"
         id="path877" />
      <path
         style="fill:none;stroke:#000000;stroke-width:0.529167;stroke-linejoin:round;stroke-opacity:1;paint-order:stroke fill markers"
         d="m 100.35268,128.13393 c 2.02933,0.13026 1.79634,2.81191 2.83482,3.59077 1.79949,1.34962 11.69403,4.58218 9.4494,9.07143 -0.97783,1.95567 -2.70136,2.32338 -4.15773,3.77976 -1.2553,1.2553 -2.21614,2.18231 -2.26786,2.07887 -0.0845,-0.16904 0.18899,-0.56696 0,-0.56696 -0.18899,0 0,0.75595 0,0.56696 0,-0.91159 0.66134,-2.53781 -0.94494,-2.07887 -3.39254,0.9693 -6.698896,3.02381 -10.20536,3.02381 -0.09349,0 0.177035,-0.50235 0,-0.94494 -0.883283,-2.20821 3.02011,-1.95164 4.535715,-2.45685 3.428965,-1.14298 -1.613197,-0.95853 -2.078869,-1.88988 -0.713711,-1.42742 2.267858,-2.00413 2.267858,-2.64583 0,-3.00055 -8.289507,-6.16159 -6.425597,-7.55952 1.327195,-0.9954 3.231817,-1.58124 4.724704,-2.07887 0.552085,-0.18403 0.999877,-0.68893 1.511904,-0.94494 2.532555,-1.26628 5.054765,4.51175 6.992555,5.48065 0.79901,0.3995 1.97313,0.3251 2.83483,0.75595 1.5559,0.77796 2.16913,2.01306 3.40178,2.83483"
         id="path879" />
      <path
         style="fill:none;stroke:#000000;stroke-width:0.529167;stroke-linejoin:round;stroke-opacity:1;paint-order:stroke fill markers"
         d="m 91.09226,127.37797 c -0.125992,0.31499 -0.240194,0.63494 -0.377976,0.94495 -0.537022,1.2083 -0.912461,3.00756 -2.078868,3.59077 -0.598173,0.29909 -4.382519,1.2413 -3.96875,0 0.499009,-1.49703 7.018419,-8.09266 6.236607,-3.40179"
         id="path881" />
      <path
         style="fill:none;stroke:#000000;stroke-width:0.529167;stroke-linejoin:round;stroke-opacity:1;paint-order:stroke fill markers"
         d="m 83.15476,135.12649 c -0.954294,0.95998 -7.666792,4.61743 -8.315476,3.96875 -2.441781,-2.44179 7.118244,-4.2082 8.315476,-3.96875 z"
         id="path883" />
      <path
         style="fill:none;stroke:#000000;stroke-width:0.529167;stroke-linejoin:round;stroke-opacity:1;paint-order:stroke fill markers"
         d="m 113.77083,104.6994 c -3.78964,0.99886 -3.53001,4.65179 -5.48065,6.99256 -0.82956,0.99547 -1.90659,1.57873 -2.26786,3.02381 -0.16148,0.64593 5.3379,3.5586 3.96875,2.64584"
         id="path885" />
      <path
         style="fill:none;stroke:#000000;stroke-width:0.529167;stroke-linejoin:round;stroke-opacity:1;paint-order:stroke fill markers"
         d="m 113.77083,104.6994 c -1.38678,-1.75225 -1.17437,-3.55033 -3.59077,-1.13393 -0.9289,0.9289 -3.85892,8.42531 -5.85863,6.4256 -1.79245,-1.79245 1.79562,-4.81896 -0.56697,-7.18155 -2.69916,-2.69917 -4.680306,1.19228 -7.181545,0.56697 -2.663192,-0.6658 -4.942937,-5.771636 -6.425594,-7.748515 -1.962012,-2.616015 -5.631751,-3.344945 -7.559524,-6.236608 -0.878969,-1.318453 4.044786,-3.401785 5.291667,-3.401785 -0.259177,-2.073421 0.09013,-0.933893 -0.755952,-2.456844 -4.733685,-8.520633 5.484385,0.561743 6.425595,-0.755952 1.758621,-2.46207 -3.222922,-7.048806 -0.755952,-8.693453 0.716018,-0.477345 2.968701,0.688364 3.779762,0.755953 9.130163,0.760847 -0.32762,7.28226 2.456845,12.85119 0.619029,1.238058 1.938438,0.426531 2.645838,1.133929 1.89575,1.895757 3.70632,5.349442 6.2366,6.614583 2.31408,1.157039 4.16455,-0.560155 6.4256,1.700893 0.0587,0.05865 -1.48643,-0.817561 -1.88988,-2.834821 -0.41543,-2.077121 3.0289,-2.262765 2.45684,-2.834822 -1.84222,-1.842222 -4.96979,3.98944 -6.04762,0.755953 -0.20133,-0.603989 -0.60523,-1.550171 -1.13393,-2.078869 -0.65418,-0.654185 1.04233,-3.522268 1.13393,-4.346727 0.122,-1.097983 -1.29106,-4.378584 -0.37797,-5.291666 0.55106,-0.551062 1.82881,0.811234 2.07887,-0.188988 0.40075,-1.603 -2.5854,-6.675026 -1.51191,-7.748512 0.56846,-0.568464 1.20552,-1.159716 1.51191,-2.078869 1.10235,-3.307054 -3.1464,-1.493179 2.26785,-5.102679 1.65039,-0.0077 3.83987,0.128881 5.10268,-1.133929 1.62778,-1.627775 6.30947,1.293327 7.37054,-1.889881 0.9119,-2.735719 -4.07026,-4.549733 -5.10268,-6.614583 -0.23351,-0.467017 4.10837,-9.424722 4.15774,-9.449405 1.22482,-0.612412 2.98677,-0.377976 4.34672,-0.377976"
         id="path887" />
      <path
         style="fill:none;stroke:#000000;stroke-width:0.529167;stroke-linejoin:round;stroke-opacity:1;paint-order:stroke fill markers"
         d="m 128.70089,45.924107 c -2.28213,-0.791086 -1.6277,-2.760578 -1.70089,-5.10268 -0.058,-1.854946 -0.61749,-4.573117 0,-6.425594 0.35622,-1.06866 0.89695,-2.219862 1.70089,-3.023809 0.58705,-0.587044 7.75386,-5.145918 8.31548,-4.724702 3.75903,2.819276 9.72044,5.231434 14.55208,4.157737 1.46118,-0.324705 2.5305,-1.28447 3.77976,-1.700893 3.84309,-1.281028 8.54886,0.225137 12.47322,-0.755951 0.64964,-0.162412 0.6585,-1.062321 1.70089,-1.322917 1.40176,-0.350441 15.48913,-1.519801 16.44196,-0.566965 2.35305,2.353051 -1.91463,5.381657 -1.32291,7.748511 0.34704,1.388192 1.77326,2.223608 2.26785,3.212798"
         id="path889" />
      <path
         style="fill:none;stroke:#000000;stroke-width:0.529167;stroke-linejoin:round;stroke-opacity:1;paint-order:stroke fill markers"
         d="m 186.90922,37.419642 c -0.69296,0.125992 -1.39558,0.207156 -2.07886,0.377976 -1.08753,0.271883 -1.68795,2.544863 -2.64584,3.023809 -1.18283,0.591415 -2.83155,1.56945 -3.59077,2.834822 -0.43068,0.717797 -0.59707,2.282913 -1.32292,2.645834 -1.70827,0.854136 -3.42215,0.704789 -4.7247,2.267857 -1.37666,1.651995 -2.06575,4.320474 -3.02381,6.236608 -0.95244,1.904873 -4.49146,3.179606 -6.04762,4.346725 -1.97106,1.478291 -2.95486,3.452884 -3.96875,5.480654 -0.81384,1.627679 -3.86155,0.919535 -4.53571,2.267857 -0.58619,1.172371 9.15229,0.639048 10.96131,-0.566962 -0.28755,3.96473 -0.96483,6.823458 -3.59078,9.449404 -0.95564,0.955642 -3.24164,-2.427997 -4.7247,-0.94494 -2.43356,2.433566 2.94862,1.322242 1.70089,3.401786 -1.40807,2.346782 -4.27559,5.078278 -5.10267,7.559523 3.89195,-4.426492 7.65381,-3.023728 11.90625,-4.724702 1.55593,-0.622374 1.82856,-3.383028 2.83482,-4.724702 0.81433,-1.085777 6.04688,-2.692898 7.37053,-3.02381 4.06113,-1.015281 8.05412,2.820347 11.90625,3.590774 2.29474,0.458947 3.24641,-2.94961 6.99256,-1.700893 4.23561,2.824792 18.57143,-0.911209 20.78869,0.566964 2.12834,3.097027 7.62395,8.103589 4.91369,11.717262 -1.91768,2.556918 -5.89395,3.06373 -7.9375,7.559524 -2.4565,5.404308 0.70273,7.583428 0,10.394348 -0.7978,3.19122 -5.47692,5.28046 -6.2366,7.55952 -0.26459,0.79375 0.26458,1.85208 0,2.64583 -0.95141,2.85421 -4.1109,6.09608 -4.91369,8.50447"
         id="path891" />
      <path
         style="fill:none;stroke:#000000;stroke-width:0.529167;stroke-linejoin:round;stroke-opacity:1;paint-order:stroke fill markers"
         d="m 201.83929,124.16518 c 1.15527,6.37872 -3.79672,11.15595 -9.44941,13.04018 -1.69827,0.56609 -4.08431,-0.22179 -5.85863,0 -0.68257,0.0853 -5.48639,5.91017 -7.18155,7.18154 -0.81418,0.61064 1.82732,-0.99 2.83482,-1.13393 0.42339,-0.0605 6.76907,-3.52176 6.80357,-3.59077 1.05931,-2.11861 2.07191,4.71774 2.07887,4.7247 2.25211,2.25211 5.47895,1.03687 7.9375,4.72471 -0.44097,0.063 -0.89076,0.0809 -1.32291,0.18899 -1.94509,0.48626 -3.77376,2.93714 -5.66965,3.77976 -2.37192,1.05419 -5.31286,1.33351 -7.55952,2.45684 -1.04002,0.52001 -1.69297,1.9824 -2.83482,2.26786 -2.3398,0.58495 -6.36742,-0.87954 -8.50446,0.18899 -0.91627,0.45813 -2.61546,1.23019 -2.86241,1.29859"
         id="path893" />
      <path
         style="fill:none;stroke:#000000;stroke-width:0.529167;stroke-linejoin:round;stroke-opacity:1;paint-order:stroke fill markers"
         d="m 88.25744,61.799107 c 2.340477,0.285797 4.528973,0.195728 6.236607,-1.511906 3.593158,-3.593158 -0.853739,-8.40009 -0.188989,-10.394344 0.562422,-1.687269 2.784202,-2.179272 3.590774,-3.590774 0.893501,-1.563627 2.946208,-10.92418 1.133928,-11.528274 -1.046758,-0.34892 -1.799154,1.005414 -2.645834,1.322916 -3.740729,1.402774 -6.824755,5.10653 -10.961309,5.858632 -0.875757,0.159229 -2.639711,-0.207349 -3.023809,0.944941 -0.657627,1.972881 2.601288,4.435816 1.889882,5.858629 -0.912799,1.825601 -6.315292,-3.173455 -6.992559,-2.83482 -0.898628,0.449313 -1.428718,2.205466 -2.267858,2.83482 -0.896953,0.672714 -2.090041,0.778296 -2.645833,1.889882 -0.837166,1.67433 1.261504,2.272612 1.700892,3.590774 0.275395,0.82618 -0.494929,2.363904 0,3.023809 0.562441,0.749922 1.544887,1.16691 2.078869,1.700892 0.188761,0.188762 -0.523346,0.334359 -0.566963,0.377976 -0.343799,0.3438 -2.271236,2.453468 -1.889881,2.834823 0.961125,0.961128 3.542209,0.172799 4.724701,0.566965 1.526143,0.508714 -6.047618,5.605769 -6.047618,6.047618 0,0.939154 1.363297,1.174311 1.889882,1.700892 3.297819,3.29782 4.117916,0.02986 7.181545,-2.267857 0.824511,-0.618382 2.183916,0.23096 3.023809,-0.188987 1.033296,-0.516646 -2.251397,-2.840307 -1.133927,-3.212798 1.471985,-0.490662 4.913691,-1.197801 4.913691,-3.023809 z"
         id="path895" />
      <path
         style="fill:none;stroke:#000000;stroke-width:0.529167;stroke-linejoin:round;stroke-opacity:1;paint-order:stroke fill markers"
         d="m 71.24851,75.406249 c 1.972241,3.036202 5.072734,5.918523 3.023812,10.016368 -0.28896,0.577916 -2.412955,2.209337 -3.023812,3.023809 -2.053365,2.737824 0.988414,13.163954 -0.566963,15.497024 -0.454001,0.681 -1.204063,1.22744 -1.700892,1.88988 -0.328263,0.43768 -1.100767,1.51191 -1.511906,1.51191 -1.225965,0 -1.666227,-1.28825 -2.456844,-2.07887 -7.41209,-7.412091 1.505347,-4.97926 0.755952,-12.473215 -0.130726,-1.307259 -1.212901,-2.953279 -1.889882,-3.96875 -0.869926,-1.304891 -0.160412,-7.823203 -0.566965,-9.449406 -0.227134,-0.908542 -1.607148,-1.983626 -0.944938,-2.645833 0.90129,-0.90129 7.662058,-2.136505 8.882438,-1.322917 0.678259,0.452173 3.078049,3.222117 3.212798,3.401785"
         id="path897" />
      <path
         style="fill:none;stroke:#000000;stroke-width:0.529167;stroke-linejoin:round;stroke-opacity:1;paint-order:stroke fill markers"
         d="m 65.767857,113.39286 c -0.684313,1.18106 -1.068634,2.67675 -2.456847,3.02381 -1.411243,0.35281 -1.480256,3.60132 -3.212796,3.0238 -0.246411,-0.0821 -0.117633,-0.5062 -0.188989,-0.75595 -1.279252,-4.47738 5.455483,-9.32314 5.858632,-5.29166 0.04297,0.42967 -0.377976,1.45781 -0.377976,2.07886"
         id="path899" />
      <path
         style="fill:none;stroke:#000000;stroke-width:0.529167;stroke-linejoin:round;stroke-opacity:1;paint-order:stroke fill markers"
         d="m 91.848214,111.69196 c 0.404294,0.77499 1.836481,3.01313 2.83482,3.2128 0.39774,0.0795 4.346659,-4.91376 3.779763,-5.48065 -3.013509,-3.01351 -8.490963,-1.48491 -6.614583,2.26785 z"
         id="path901" />
      <path
         style="fill:none;stroke:#000000;stroke-width:0.529167;stroke-linejoin:round;stroke-opacity:1;paint-order:stroke fill markers"
         d="m 173.30208,11.528274 c 0.5301,2.492046 3.87803,3.87803 6.04762,6.047619 0.64051,0.640504 4.17602,0.143274 4.53571,-0.755953 1.22066,-3.051632 -3.49723,-3.827486 -4.91369,-4.535714 -1.98901,-0.994507 -1.72061,-4.7049841 -5.66964,-0.755952 z"
         id="path903" />
      <path
         style="fill:none;stroke:#000000;stroke-width:0.529167;stroke-linejoin:round;stroke-opacity:1;paint-order:stroke fill markers"
         d="m 175.94791,8.1264881 c 0.61767,-3.2985673 -0.49506,-6.176155 3.02381,-7.18154763 0.2779,-0.0793991 1.79201,-0.71039423 2.07887,-0.56696429 1.4378,0.71889642 0.85845,2.45684532 3.02381,2.45684532 6.00259,0 -1.32557,-6.1900255 4.53572,-4.7247024 3.60472,0.90118059 2.35496,2.9219237 4.15774,4.7247024 2.72843,2.7284362 5.89548,5.1718471 2.64583,9.0714285 -2.53103,3.037229 -6.57275,-3.0447248 -9.63839,-1.511905 -1.37145,0.685722 -8.12649,4.256692 -8.12649,1.511905"
         id="path905" />
      <path
         style="fill:none;stroke:#000000;stroke-width:0.529167;stroke-linejoin:round;stroke-opacity:1;paint-order:stroke fill markers"
         d="m 188.61012,14.174107 c 0.043,0.742313 -0.0499,1.383553 -0.18899,2.078869 -0.16913,0.845638 -0.971,2.808761 -0.18899,3.590774 0.77665,0.776646 5.93505,1.664741 4.91369,-0.377976 -1.02299,-2.045991 -3.36257,-3.336434 -4.53571,-5.291667 z"
         id="path907" />
      <path
         style="fill:none;stroke:#000000;stroke-width:0.529167;stroke-linejoin:round;stroke-opacity:1;paint-order:stroke fill markers"
         d="m 53.294643,227.91964 c -0.84978,0.84978 -0.756518,2.6464 -1.511905,3.40179 -2.35194,2.35194 -7.498666,2.57856 -5.102678,7.37053 0.212964,0.42593 0.760184,2.26998 1.133928,2.45685 2.383247,1.19162 4.447415,0.85664 6.425595,2.83482 2.073383,2.07338 2.587378,5.83525 5.480655,6.99256 1.315848,0.52634 3.397133,-2.08119 3.779762,-1.88988 1.269251,0.63463 6.161729,4.30749 7.559524,1.5119 1.224648,-2.4493 -5.935082,-3.69609 1.133928,-7.9375 1.380596,-0.82835 -0.01221,-5.85863 0.944941,-5.85863 1.799042,0 6.992559,4.73445 6.992559,6.04762 0,0.39979 -0.878325,2.71245 -0.377976,3.2128 0.188759,0.18876 1.431072,-0.49268 1.889881,-0.37798 0.944784,0.2362 3.130932,1.15919 3.590774,2.07887 1.039957,2.07992 -0.886787,4.82647 1.511905,6.4256 1.088465,0.72564 3.271378,-1.40544 4.157738,-1.70089 1.348418,-0.44948 4.254644,0.65904 5.291667,-0.37798 0.283428,-0.28343 0.74507,-1.98982 1.322916,-1.70089 2.360763,1.18038 3.242533,3.28085 5.669643,4.53571 0.59648,-0.89473 2.35715,-2.34676 2.64583,-3.2128 0.21503,-0.64508 2.40261,-6.0205 2.83482,-6.23661 0.71103,-0.35551 8.69346,1.77549 8.69346,-3.40178 0,-5.05227 -4.64783,-2.60418 -4.91369,-3.40179 -0.54775,-1.64324 -0.98457,-7.70888 0.18898,-8.88244 1.4335,-1.43349 5.6523,12.19751 5.85863,13.22917 0.32781,1.63903 0.59521,-3.35402 0.75596,-4.15774 0.53623,-2.68118 0.0319,-6.36174 -1.13393,-8.69345 -0.69761,-1.39521 -1.60857,-5.57587 -3.02381,-6.04762 -2.22165,-0.74055 -8.4079,2.27201 -10.20536,-1.32292 -0.5049,-1.0098 1.8843,-3.57683 2.26786,-4.53571 0.58697,-1.46743 1.0076,-3.33813 1.70089,-4.7247 0.17059,-0.34119 0,-1.81096 0,-1.7009 0,0.18655 -1.13009,-1.69705 -3.02381,-3.59077 -1.41762,-1.41763 -3.31861,-7.09838 -4.7247,-8.50447 -1.398828,-1.39882 -3.344182,-2.32125 -5.291666,-2.64583 -4.152101,-0.69202 -7.577503,2.77782 -11.150298,3.96875 -1.612451,0.53748 -3.435954,-1.7525 -5.291667,-1.13393 -0.897202,0.29907 -0.324837,0.51383 -0.755952,0.94494 -0.55827,0.55827 -1.709298,0.95335 -2.267857,1.51191 -3.624215,3.62421 2.156373,3.13782 -7.559524,3.40178 -0.377976,0.18899 -0.755952,0.37798 -1.133928,0.56697 -0.063,0.063 -0.114861,0.13957 -0.188988,0.18899 -0.59628,0.39752 -2.339944,0.90012 -2.645833,1.5119 -1.055623,2.11125 -2.653184,13.22917 -3.96875,13.22917 -1.558196,0 -2.520722,-0.65125 -3.96875,-1.13393 -1.738548,-0.57951 -2.465542,1.32727 -3.96875,2.07887 -0.653947,0.32697 -1.990005,0.9562 -2.267857,1.5119 -1.234081,2.46817 3.866574,2.32662 1.889881,5.29167"
         id="path909" />
      <path
         style="fill:none;fill-opacity:1;stroke:#000000;stroke-width:0.529167;stroke-linejoin:round;stroke-opacity:1;paint-order:stroke fill markers"
         d="m 228.78271,406.51693 c -1.4498,0.92061 1.45105,2.45626 0.26728,1.0691"
         id="path1006" />
      <path
         style="opacity:0.625806;fill:none;fill-opacity:1;stroke:#000000;stroke-width:0.529;stroke-linejoin:round;stroke-miterlimit:4;stroke-dasharray:0.529, 0.529;stroke-dashoffset:0;stroke-opacity:1;paint-order:stroke fill markers"
         d="m 200.00903,361.98993 c -6.34178,-1.42989 -3.1248,-5.87166 -4.91369,-9.44941 -1.39157,-2.78315 -4.77605,-1.63208 -6.80357,-2.64583 -3.87033,-1.93519 -5.10845,-13.41239 -2.64583,-15.875 0.76658,-0.7666 2.01128,-1.25534 2.64583,-1.88989"
         id="path1267" />
      <path
         style="opacity:0.625806;fill:none;fill-opacity:1;stroke:#000000;stroke-width:0.529;stroke-linejoin:round;stroke-miterlimit:4;stroke-dasharray:0.529, 0.529;stroke-dashoffset:0;stroke-opacity:1;paint-order:stroke fill markers"
         d="m 185.39732,292.74255 c 1.41713,-0.23056 6.63625,7.67522 5.91826,8.39322 -2.051,2.05099 -5.32325,4.27844 -8.31547,3.77975 -1.05992,-0.17666 -3.8489,-2.609 -4.15774,-0.75596 -0.67942,4.07649 6.04762,7.27982 6.04762,8.31548 0,1.83391 -3.85103,8.62219 -3.02381,9.44941 0.91299,0.913 6.65681,-1.04947 7.18155,0 0.0801,0.16026 -7.06983,3.9343 -7.55953,4.91368 -0.97655,1.95313 3.54899,2.90843 4.53572,3.4018 1.24635,0.62318 0.2449,4.92432 2.26785,1.88987"
         id="path1269" />
      <path
         style="opacity:0.625806;fill:none;fill-opacity:1;stroke:#000000;stroke-width:0.529;stroke-linejoin:round;stroke-miterlimit:4;stroke-dasharray:0.529, 0.529;stroke-dashoffset:0;stroke-opacity:1;paint-order:stroke fill markers"
         d="m 212.48225,164.68635 c -2.38823,1.53892 -5.19028,3.47561 -6.04762,6.04762 -1.17353,3.52059 5.06186,6.88522 3.40179,10.20536 -0.77915,1.5583 -3.86813,1.93406 -5.29167,2.64583 -3.46837,1.73419 -4.38736,6.65521 -6.80357,9.07143 -1.81806,1.81805 -5.06142,2.53071 -7.55952,3.77976 -1.08008,0.54004 -2.02472,4.67055 -2.64584,5.29167 -1.24088,1.24088 -4.91369,0.13501 -4.91369,1.88988 0,2.15158 -6.41174,4.70392 -7.55952,6.42559"
         id="path1271" />
    </g>
  </g>
</svg>
